<svg width="34" height="34" viewBox="0 0 34 34" fill="none" xmlns="http://www.w3.org/2000/svg">
<g clip-path="url(#clip0_1283_3988)">
<path d="M14.5771 16.9873L21.4305 17.024M27.0195 18.4681L14.6916 24.9103C13.5869 25.4877 13.0341 25.7765 12.6713 25.6906C12.3566 25.6162 12.0975 25.395 11.9755 25.0955C11.8348 24.7501 12.035 24.1589 12.4356 22.978L14.2971 17.4917C14.3607 17.3043 14.3922 17.2108 14.4051 17.1149C14.4166 17.0297 14.4176 16.9436 14.4071 16.8583C14.3954 16.7644 14.3653 16.6723 14.3064 16.4927L12.4997 10.974C12.1117 9.78898 11.9178 9.19623 12.0622 8.85241C12.1873 8.55423 12.4488 8.33529 12.7643 8.26422C13.1281 8.18227 13.6778 8.47671 14.7767 9.06604L27.0349 15.6399C27.8988 16.1032 28.3308 16.3351 28.4708 16.6418C28.5928 16.9089 28.5913 17.2161 28.4665 17.4819C28.3233 17.787 27.8889 18.014 27.0209 18.4675L27.0195 18.4681Z" stroke="#666666" stroke-width="2" stroke-linecap="round" stroke-linejoin="round"/>
</g>
<defs>
<clipPath id="clip0_1283_3988">
<rect width="24" height="24" fill="white" transform="translate(17.0612 0.0292969) rotate(45.3068)"/>
</clipPath>
</defs>
</svg>
