<svg width="26" height="24" viewBox="0 0 26 24" fill="none" xmlns="http://www.w3.org/2000/svg">
<path fill-rule="evenodd" clip-rule="evenodd" d="M15.4323 4.74145H23.1376C23.3122 4.74145 23.4687 4.65038 23.5594 4.50121L25.8342 0.759757C26.0368 0.426553 25.7969 0 25.407 0H2.25467C2.05809 0 1.87974 0.115201 1.7989 0.294401L0.111137 4.03585C-0.0381384 4.36676 0.200077 4.74145 0.563104 4.74145H8.91037L4.67869 13.2165C4.5127 13.5489 4.75446 13.9399 5.12603 13.9399H8.04313C8.3925 13.9399 8.63416 14.289 8.51106 14.616L5.43038 22.7991C5.23258 23.3245 5.91753 23.7268 6.28008 23.2981L17.4925 10.0412C17.7562 9.72955 17.5553 9.25038 17.1483 9.21976L13.8658 8.97289C13.5008 8.94543 13.288 8.54786 13.4677 8.22889L15.4323 4.74145Z" fill="#B3B3B3"/>
</svg>
