<svg width="30" height="24" viewBox="0 0 30 24" fill="none" xmlns="http://www.w3.org/2000/svg">
<path d="M6.35933 14.4874C5.56802 13.4792 5.17236 12.9751 5.17236 11.4783C5.17236 9.98142 5.56802 9.47735 6.35933 8.46917C7.93936 6.45612 10.5892 4.17391 14.4827 4.17391C18.3762 4.17391 21.026 6.45612 22.6061 8.46917C23.3974 9.47735 23.7931 9.98142 23.7931 11.4783C23.7931 12.9751 23.3974 13.4792 22.6061 14.4874C21.026 16.5004 18.3762 18.7826 14.4827 18.7826C10.5892 18.7826 7.93936 16.5004 6.35933 14.4874Z" stroke="white" stroke-width="2"/>
<path d="M17.2757 11.4783C17.2757 12.9911 16.0252 14.2174 14.4826 14.2174C12.9399 14.2174 11.6895 12.9911 11.6895 11.4783C11.6895 9.96544 12.9399 8.73913 14.4826 8.73913C16.0252 8.73913 17.2757 9.96544 17.2757 11.4783Z" stroke="white" stroke-width="2"/>
</svg>
