<svg width="30" height="24" viewBox="0 0 30 24" fill="none" xmlns="http://www.w3.org/2000/svg">
<path d="M6.35933 14.4874C5.56802 13.4792 5.17236 12.9751 5.17236 11.4783C5.17236 9.98145 5.56802 9.47739 6.35933 8.46921C7.93936 6.45616 10.5892 4.17395 14.4827 4.17395C18.3762 4.17395 21.026 6.45616 22.6061 8.46921C23.3974 9.47739 23.7931 9.98145 23.7931 11.4783C23.7931 12.9751 23.3974 13.4792 22.6061 14.4874C21.026 16.5004 18.3762 18.7826 14.4827 18.7826C10.5892 18.7826 7.93936 16.5004 6.35933 14.4874Z" stroke="#F5FEF9" stroke-width="2"/>
<path d="M17.2759 11.4783C17.2759 12.9911 16.0254 14.2174 14.4828 14.2174C12.9402 14.2174 11.6897 12.9911 11.6897 11.4783C11.6897 9.96544 12.9402 8.73914 14.4828 8.73914C16.0254 8.73914 17.2759 9.96544 17.2759 11.4783Z" stroke="#F5FEF9" stroke-width="2"/>
<path d="M6.20679 4.17395L22.7585 18.7826" stroke="#F5FEF9" stroke-width="2.5" stroke-linecap="round"/>
</svg>
