<svg width="21" height="22" viewBox="0 0 21 22" fill="none" xmlns="http://www.w3.org/2000/svg">
<path d="M19.3344 10.706C20.1858 10.706 20.8879 10.0119 20.7607 9.17002C20.5401 7.71061 20.0067 6.30955 19.1901 5.06561C18.0902 3.39009 16.5244 2.07273 14.6854 1.27566C12.8464 0.478599 10.8145 0.236613 8.83979 0.579492C6.86504 0.922371 5.03364 1.83515 3.57098 3.20549C2.10833 4.57582 1.07825 6.34391 0.607538 8.29215C0.136822 10.2404 0.246007 12.2837 0.921655 14.1707C1.5973 16.0577 2.80993 17.7059 4.41028 18.9126C5.59842 19.8085 6.96178 20.4319 8.40374 20.747C9.23556 20.9288 9.97386 20.2734 10.0293 19.4237C10.0847 18.5741 9.4321 17.8564 8.61367 17.6215C7.77032 17.3795 6.9741 16.984 6.26662 16.4506C5.14637 15.6059 4.29753 14.4522 3.82458 13.1313C3.35163 11.8104 3.2752 10.3801 3.6047 9.0163C3.9342 7.65253 4.65525 6.41487 5.67911 5.45563C6.70297 4.4964 7.98495 3.85745 9.36727 3.61744C10.7496 3.37742 12.1719 3.54681 13.4592 4.10476C14.7465 4.6627 15.8426 5.58486 16.6125 6.75772C17.0988 7.49843 17.4415 8.31871 17.6281 9.17603C17.8092 10.008 18.4829 10.706 19.3344 10.706Z" fill="url(#paint0_angular_910_291)"/>
<g filter="url(#filter0_f_910_291)">
<circle cx="8.81596" cy="19.724" r="1.512" fill="white"/>
</g>
<circle cx="8.79795" cy="19.7419" r="1.098" fill="white"/>
<defs>
<filter id="filter0_f_910_291" x="6.58396" y="17.492" width="4.46393" height="4.46405" filterUnits="userSpaceOnUse" color-interpolation-filters="sRGB">
<feFlood flood-opacity="0" result="BackgroundImageFix"/>
<feBlend mode="normal" in="SourceGraphic" in2="BackgroundImageFix" result="shape"/>
<feGaussianBlur stdDeviation="0.36" result="effect1_foregroundBlur_910_291"/>
</filter>
<radialGradient id="paint0_angular_910_291" cx="0" cy="0" r="1" gradientUnits="userSpaceOnUse" gradientTransform="translate(10.5981 10.706) rotate(90) scale(10.278)">
<stop stop-color="#6F6F6F" stop-opacity="0.4"/>
<stop offset="0.328125" stop-color="#272727" stop-opacity="0.6"/>
<stop offset="0.682292" stop-color="#181818" stop-opacity="0.8"/>
<stop offset="1" stop-color="#343434"/>
</radialGradient>
</defs>
</svg>
