<svg width="636" height="666" viewBox="0 0 636 666" fill="none" xmlns="http://www.w3.org/2000/svg">
<path d="M427.148 549.827C488.477 522.322 538.231 474.198 567.763 413.819C597.295 353.44 604.738 284.622 588.8 219.325C572.861 154.028 534.548 96.3789 480.519 56.3965C426.489 16.4142 360.159 -3.37402 293.055 0.470735C225.95 4.31549 162.314 31.5502 113.205 77.4419C64.0954 123.334 32.6175 184.981 24.2412 251.672C15.8649 318.362 31.1198 385.879 67.3549 442.49C103.59 499.101 158.515 541.227 222.584 561.547L231.275 534.142C173.613 515.854 124.181 477.941 91.5694 426.991C58.9579 376.041 45.2284 315.276 52.7671 255.255C60.3057 195.233 88.6359 139.75 132.834 98.4477C177.033 57.1452 234.305 32.6339 294.699 29.1737C355.093 25.7134 414.79 43.5228 463.417 79.5069C512.043 115.491 546.525 167.375 560.87 226.143C575.215 284.91 568.515 346.846 541.937 401.187C515.358 455.529 470.579 498.84 415.383 523.594L427.148 549.827Z" fill="#B3B3B3"/>
<path fill-rule="evenodd" clip-rule="evenodd" d="M429.398 342.237C425.791 328.237 422.473 322.301 416.065 317.435C410.072 312.884 401.322 309.061 388.556 306.269C375.258 303.942 374.882 297.027 371.547 285.913C370.575 282.571 365.755 281.682 363.675 284.091C363.381 283.774 363.076 283.484 362.759 283.222C363.042 281.628 360.724 277.061 360.801 275.536C361.61 259.626 356.409 251.636 343.428 248.666C340.605 248.02 321.43 247.64 318.677 248.401C306.644 251.73 294.798 262.3 296.611 275.033C292.834 279.972 289.137 282.987 283.31 284.578C270.341 286.226 257.373 287.691 244.401 288.945C219.008 292.93 195.2 306.38 178.928 325.994C177.427 327.805 176.994 330.262 178.318 332.193C177.281 336.64 171.44 347.427 176.036 350.476C168.478 368.562 151.09 403.52 151.054 413.508C150.92 455.464 155.45 510.076 196.826 533.294C198.482 534.924 198.719 536.727 199.437 539.152C201.256 546.79 207.862 552.249 215.093 551.803C250.714 552.595 285.215 548.247 320.837 548.036C336.546 547.943 355.438 550.29 369.084 551.853C382.73 553.416 396.506 552.033 409.602 548.036C410.706 549.776 412.939 550.789 415.203 550.29C428.78 547.591 439.758 539.219 449.32 530.07C452.242 524.751 463.653 509.596 459.118 504.321C463.229 486.928 463.016 468.239 455.709 451.677C456.745 448.641 454.857 445.304 455.709 442.169C456.326 439.9 457.905 438.962 458.7 436.715C459.818 433.554 458.602 429.313 457.342 426.087C456.826 424.479 458.292 422.748 458.7 421.108C460.632 413.369 456.207 414.051 453.017 408.878C453.065 408.862 453.895 405.169 453.891 405.187C454.379 402.551 453.156 399.173 452.088 396.972C451.367 395.484 449.822 394.553 448.286 394.724C449.832 389.472 451.788 385.101 453.891 380.041C457.61 371.121 462.317 362.579 467.657 354.505C469.844 351.199 466.907 347.368 463.368 347.143C451.913 346.415 440.584 344.765 429.398 342.237Z" fill="#B3B3B3"/>
<path fill-rule="evenodd" clip-rule="evenodd" d="M395.968 409.692C391.386 407.894 386.453 406.901 381.495 406.515C384.165 406.047 386.842 405.596 389.541 405.364C391.424 405.202 393.17 405.219 394.585 406.648C395.529 407.6 395.972 408.826 396.593 409.953C396.39 409.862 396.179 409.775 395.968 409.692ZM445.142 392.884C437.639 393.265 430.128 395.051 423.34 398.285C420.563 399.611 418.047 401.524 417.31 404.672C416.938 406.279 417.029 407.94 417.227 409.564C417.377 410.794 417.414 412.364 418.482 413.196C418.664 413.337 418.858 413.445 419.061 413.523C416.557 414.654 414.173 416.013 412.054 417.413C410.118 418.693 408.127 420.664 407.233 422.888C407.159 422.636 407.084 422.4 407.01 422.176C405.487 417.67 403.14 413.979 399.444 411.498C400.098 411.204 400.549 410.508 400.338 409.548C399.461 405.534 395.756 402.046 391.573 402.295C386.991 402.564 382.07 404.233 377.927 406.341C376.417 406.308 374.91 406.329 373.421 406.395C373.164 406.403 373.177 406.752 373.421 406.78C374.629 406.934 375.838 407.103 377.046 407.302C379.918 407.762 382.782 408.346 385.584 409.071C388.945 409.941 392.421 410.815 395.562 412.335C401.654 415.288 405.424 423.009 404.651 429.727C404.522 430.828 404.096 434.159 402.568 433.815C401.278 433.525 400.764 430.828 400.313 429.83C399.105 427.179 396.928 425.448 394.316 424.276C391.25 422.897 387.968 421.965 384.789 420.88C382.989 420.263 381.189 419.645 379.385 419.032C377.539 418.399 375.784 417.525 373.818 417.968C372.63 418.237 372.494 419.653 373.16 420.466C374.174 421.704 375.68 422.068 377.141 422.578C379.07 423.249 380.994 423.92 382.919 424.591C385.894 425.626 389.011 426.5 391.912 427.768L391.821 427.975C391.585 427.908 391.307 428.144 391.353 428.434C391.788 431.114 392.392 434.212 391.721 436.897C391.192 439.025 389.325 441.383 386.9 440.757C387.281 440.409 387.422 439.808 387.165 439.253C386.204 437.199 373.624 429.089 372.502 432.1C372.465 432.208 372.58 432.286 372.672 432.27C373.628 432.071 375.229 433.703 375.995 434.221C377.1 434.967 378.221 435.695 379.314 436.462C380.51 437.299 381.677 438.177 382.815 439.083C383.709 439.796 384.384 440.537 385.41 440.898C384.872 441.154 384.446 441.631 384.264 442.24C383.8 443.826 382.906 445.172 381.354 445.872C379.728 446.601 377.895 446.141 376.181 446.32C373.847 446.555 371.811 447.666 370.11 449.252C366.538 452.59 364.746 458.472 359.751 460.05C356.767 460.991 353.456 460.398 350.435 459.971C347.062 459.495 343.776 459.118 340.378 459.615C337.125 460.092 334.051 461.218 331.079 462.593C328.294 463.881 325.215 465.34 322.744 467.261C322.235 465.691 321.722 464.138 321.332 462.535C320.414 458.746 319.917 454.885 319.797 450.992C319.686 447.285 319.892 443.561 320.211 439.87C320.368 438.027 320.617 436.192 320.774 434.349C320.815 433.885 320.898 433.388 320.96 432.892C325.372 430.286 330.007 428.29 334.679 426.235C334.692 426.231 334.704 426.223 334.717 426.219C334.862 426.152 335.002 426.09 335.147 426.028C335.143 426.02 335.139 426.012 335.131 426.003C335.665 425.676 336.037 425.241 336.261 424.752C342.994 420.283 348.622 414.182 352.819 407.066C354.578 404.084 356.271 400.99 358.572 398.377C361.022 395.589 363.931 393.932 367.532 393.07C371.741 392.06 376.078 391.455 380.39 391.111C382.745 390.925 385.377 390.635 387.943 390.648C389.731 390.66 391.481 390.813 393.087 391.256C395.467 391.911 396.858 393.721 398.352 395.551C399.779 397.308 401.199 399.068 402.532 400.899C403.793 402.634 404.986 404.428 406.02 406.308C406.641 407.435 407.216 408.595 407.701 409.791C407.87 410.214 408.094 410.694 408.197 411.133C408.301 411.577 408.11 412.045 408.607 412.045C406.558 412.074 406.579 415.35 408.615 415.23C416.586 414.766 405.168 399.193 403.5 397.022C401.136 393.948 398.699 389.939 394.917 388.51C394.863 388.489 394.805 388.469 394.751 388.452C395.852 387.408 396.721 386.158 397.553 384.886C398.41 383.577 399.431 382.078 399.713 380.524C399.891 379.535 398.662 378.971 398.078 379.837C397.23 381.1 396.82 382.699 396.187 384.087C395.541 385.495 394.755 386.824 394.134 388.245C392.64 387.785 391.026 387.574 389.383 387.504C391.457 384.696 394.999 379.278 395.426 378.582C397.387 375.359 399.254 372.038 401.038 368.712C402.966 365.108 404.617 361.355 406.463 357.71C407.51 355.644 408.566 353.56 409.729 351.556C410.13 350.868 410.56 350.18 411.049 349.555C411.144 349.431 411.264 349.328 411.376 349.211C411.504 349.141 411.636 349.062 411.711 349.021C412.381 348.636 412.617 347.741 413.089 347.173C413.842 346.258 414.728 346.151 415.862 346.138C418.278 346.113 420.704 346.208 423.117 346.275C426.664 346.374 430.206 346.515 433.749 346.701C434.821 346.759 435.888 346.817 436.96 346.883C442.113 347.19 447.261 347.592 452.397 348.085C456.941 348.519 461.486 349.228 466.034 349.568C459.876 364.21 453.047 378.586 445.316 392.462C445.238 392.602 445.179 392.743 445.142 392.884ZM410.974 430.605C409.981 431.061 409.017 431.628 408.119 432.274C408.268 431.268 408.305 430.207 408.264 429.143C409.004 429.938 409.952 430.394 410.974 430.605ZM453.374 405.418C453.304 405.426 453.237 405.463 453.204 405.534C451.83 408.371 452.405 411.539 454.649 413.764C455.824 414.923 458.386 416.232 458.303 418.138C458.232 419.678 456.557 420.971 455.841 422.242C455.174 423.427 454.926 424.727 455.46 426.012C456.143 427.656 458.051 428.31 458.704 429.926C459.532 431.976 458.187 434.449 457.244 436.234C456.366 437.886 455.232 439.539 454.479 441.287C449.434 443.901 444.919 447.91 441.037 451.982C436.787 456.434 433.141 461.674 426.39 461.542C425.716 461.529 425.203 461.885 424.896 462.378C423.018 462.465 421.134 462.502 419.256 462.511C415.953 462.527 412.65 462.494 409.352 462.39C409.12 461.591 409.29 460.506 409.277 459.83C409.236 457.656 409.215 455.486 409.124 453.311C409.1 452.707 409.075 452.097 409.05 451.493C410.238 453.642 412.555 454.62 415.196 454.471C419.442 454.223 423.713 453.526 427.917 452.901C430.132 452.574 432.342 452.201 434.548 451.803C436.36 451.48 438.918 451.564 440.184 450.109C440.482 449.77 440.499 449.149 440.031 448.921C438.777 448.303 437.987 448.647 436.608 448.913C434.928 449.239 433.244 449.55 431.555 449.84C428.314 450.403 425.066 450.925 421.809 451.385C419.955 451.646 418.097 451.903 416.239 452.106C414.616 452.28 412.787 452.516 411.479 451.294C408.843 448.825 410.32 444.687 411.988 442.194C412.021 442.145 412.021 442.099 412.009 442.057C413.582 441.689 415.15 441.258 416.714 440.956C419.723 440.376 422.753 439.887 425.786 439.452C432.019 438.562 438.293 437.973 444.558 437.381C446.11 437.232 446.127 434.789 444.558 434.934C435.557 435.758 426.51 436.54 417.629 438.276C415.403 438.706 413.192 439.195 410.995 439.746C409.956 440.003 408.843 440.405 407.754 440.418C407.688 440.418 407.622 440.418 407.556 440.413C405.424 440.347 405.114 438.521 406.285 437C406.43 436.814 406.579 436.627 406.732 436.45C408.802 433.98 411.379 432.332 414.036 430.626C417.012 430.22 419.98 429.317 422.893 428.654C430.086 427.014 437.279 425.374 444.476 423.737C445.887 423.414 445.287 421.244 443.876 421.563C438.413 422.802 432.95 424.04 427.487 425.278L419.491 427.093C417.894 427.453 415.899 428.178 414.02 428.439C413.093 428.567 412.195 428.584 411.384 428.393C408.764 427.772 408.632 424.495 409.762 422.549C411.028 420.362 413.42 418.995 415.543 417.756C419.222 415.607 423.138 414.062 426.962 412.281C427.64 412.132 428.319 411.983 428.998 411.833C432.946 410.964 437.457 410.537 441.173 408.943C442.287 408.47 441.678 406.714 440.578 406.739C437.693 406.801 434.676 407.828 431.858 408.437C428.807 409.1 425.753 409.758 422.703 410.417C422.397 410.483 420.584 411.063 420.311 410.935C420.137 410.852 420.075 410.247 420.017 409.849C419.83 408.541 419.694 407.166 419.897 405.852C420.344 402.908 422.798 401.524 425.281 400.393C430.81 397.879 436.874 396.306 442.908 395.676C444.298 395.531 445.689 395.44 447.087 395.394C448.73 395.344 450.084 395.054 450.916 396.674C452.223 399.225 452.944 402.506 453.374 405.418ZM445.695 497.926C444.491 493.756 444.818 489.303 443.993 485.05C443.567 482.856 442.986 480.679 442.351 478.536C441.839 476.806 440.984 474.965 440.887 473.159C440.881 473.039 441.023 472.969 441.121 473.025C442.821 473.999 444.126 476.105 445.095 477.758C446.256 479.735 447.142 481.806 447.856 483.984C449.281 488.322 450.451 493.554 448.613 497.926C448.067 499.228 446.146 499.488 445.695 497.926ZM408.462 442.691C409.48 442.592 410.498 442.397 411.516 442.169C410.378 443.28 409.327 444.617 408.743 446.1C408.653 444.961 408.536 443.826 408.384 442.696C408.408 442.696 408.437 442.696 408.462 442.691ZM398.678 529.495C396.882 528.241 395.574 526.488 394.052 524.941C392.554 523.419 394.895 521.076 396.393 522.598C397.692 523.917 398.82 525.566 400.348 526.633C401.084 527.146 401.425 528.075 400.943 528.9C400.517 529.629 399.411 530.007 398.678 529.495ZM388.666 481.304C391.943 479.886 395.166 478.341 398.596 477.32C400.646 476.709 401.514 479.908 399.476 480.515C396.317 481.456 393.355 482.859 390.337 484.165C388.399 485.003 386.715 482.148 388.666 481.304ZM354.055 480.312C353.253 478.333 356.458 477.48 357.247 479.431C358.156 481.677 359.199 483.865 360.108 486.111C360.909 488.09 357.705 488.943 356.915 486.992C356.006 484.746 354.964 482.558 354.055 480.312ZM319.893 519.834C319.359 520.546 318.469 520.932 317.628 520.429C316.923 520.006 316.493 518.883 317.034 518.162C318.612 516.057 320.211 513.977 322.06 512.1C323.56 510.579 325.9 512.924 324.401 514.443C322.75 516.119 321.302 517.954 319.893 519.834ZM315.008 298.077C316.528 299.116 317.859 300.378 319.157 301.676C320.667 303.186 318.325 305.529 316.816 304.019C315.722 302.925 314.619 301.814 313.337 300.938C312.597 300.432 312.264 299.491 312.743 298.671C313.172 297.937 314.269 297.573 315.008 298.077ZM364.709 351.399C363.85 353.121 363.076 354.809 363.027 356.766C362.975 358.898 359.664 358.899 359.717 356.766C359.78 354.205 360.724 351.984 361.85 349.727C362.802 347.816 365.657 349.497 364.709 351.399ZM382.944 308.574C384.724 307.387 386.38 310.259 384.616 311.436C383.185 312.39 381.755 313.344 380.324 314.299C378.545 315.486 376.889 312.614 378.653 311.437C380.084 310.483 381.514 309.529 382.944 308.574ZM303.85 383.45C303.546 385.556 300.356 384.655 300.657 382.569C301.122 379.346 301.691 376.165 302.564 373.026C303.136 370.971 306.329 371.849 305.757 373.907C304.883 377.046 304.315 380.227 303.85 383.45ZM292.241 421.407C290.11 421.362 290.11 418.048 292.241 418.093C294.17 418.134 296.066 418.642 297.926 419.107C299.995 419.624 299.113 422.819 297.046 422.302C295.473 421.909 293.872 421.442 292.241 421.407ZM287.956 497.867C287.224 498.224 286.473 498.545 285.733 498.884C284.251 499.562 282.77 500.241 281.289 500.921C278.204 502.339 275.121 503.76 272.041 505.187C265.874 508.044 259.66 510.8 253.479 513.626C247.175 516.508 240.888 519.428 234.609 522.363C231.651 523.745 228.67 525.077 225.696 526.423C223.152 527.574 220.008 529.585 217.216 529.775C217.072 529.784 217.024 529.603 217.106 529.509C218.161 528.309 219.844 527.61 221.23 526.83C222.646 526.032 224.089 525.282 225.525 524.521C228.519 522.934 231.516 521.359 234.539 519.827C240.586 516.765 246.644 513.725 252.703 510.688C258.883 507.591 265.055 504.474 271.289 501.487C274.224 500.08 277.162 498.678 280.101 497.28C281.694 496.523 283.287 495.767 284.881 495.013C285.569 494.687 286.25 494.335 286.954 494.043C287.888 493.656 288.599 493.735 289.563 493.497C291.136 493.108 291.817 495.11 290.61 495.981C289.615 496.699 289.092 497.313 287.956 497.867ZM265.853 531.844C265.514 531.018 266.225 530.013 267.01 529.806C267.95 529.558 268.703 530.13 269.046 530.963C269.954 533.173 271.247 535.2 272.911 536.913C274.398 538.443 272.058 540.787 270.57 539.256C268.484 537.11 266.986 534.601 265.853 531.844ZM249.593 478.657C248.083 477.147 250.425 474.804 251.934 476.314L256.225 480.608C257.734 482.119 255.392 484.461 253.883 482.951L249.593 478.657ZM205.57 471.656C202.486 472.561 198.888 473.394 196.784 476.028C196.682 476.156 196.509 475.991 196.571 475.863C199.263 470.276 206.985 468.317 212.331 466.359C216.113 464.975 219.993 463.827 223.905 462.801C223.514 458.334 224.593 453.546 224.968 449.101C225.368 444.355 225.693 439.597 225.861 434.836C226.032 429.98 226.073 425.091 225.913 420.233C225.754 415.393 225.126 410.612 224.852 405.789C224.825 405.322 225.474 405.3 225.614 405.686C227.239 410.162 227.933 415.12 228.462 419.84C229.006 424.702 229.187 429.55 229.118 434.441C229.046 439.469 228.754 444.485 228.353 449.498C228.163 451.873 227.942 454.246 227.734 456.62C227.575 458.432 227.501 460.229 227.132 461.983C229.492 461.404 231.857 460.855 234.215 460.322C241.733 458.624 249.283 457.049 256.769 455.213C260.444 454.312 264.067 453.232 267.725 452.274C271.17 451.371 274.806 450.277 278.343 449.874C279.605 449.73 279.766 451.458 278.93 452.045C276.056 454.065 272.238 455.471 268.918 456.602C265.585 457.737 262.121 458.553 258.706 459.393C251.583 461.147 244.392 462.58 237.213 464.074C230.043 465.565 222.86 467.045 215.771 468.886C212.357 469.772 208.955 470.662 205.57 471.656ZM188.666 383.008C186.822 384.091 185.158 381.226 186.995 380.147C189.398 378.735 191.96 377.675 194.542 376.64C196.523 375.846 197.376 379.052 195.422 379.836C193.101 380.765 190.825 381.74 188.666 383.008ZM181.991 506.114C180.143 507.186 178.477 504.322 180.32 503.253C182.908 501.751 185.743 500.749 188.425 499.435C190.333 498.5 192.01 501.359 190.096 502.297C187.414 503.611 184.579 504.612 181.991 506.114ZM178.989 436.233C180.776 437.932 183.161 438.732 185.41 439.625C187.371 440.402 186.511 443.606 184.53 442.82C181.728 441.708 178.874 440.693 176.648 438.576C175.099 437.104 177.444 434.765 178.989 436.233ZM198.759 341.331C200.724 342.102 199.863 345.305 197.879 344.526C195.678 343.662 193.405 343.004 191.204 342.14C189.24 341.369 190.1 338.166 192.085 338.945C194.285 339.809 196.558 340.467 198.759 341.331ZM233.636 303.636C235.724 303.283 236.613 306.477 234.517 306.831C231.916 307.271 229.355 307.785 226.888 308.74C224.896 309.511 224.042 306.306 226.008 305.545C228.475 304.589 231.036 304.075 233.636 303.636ZM245.16 395.414C243.246 394.472 244.925 391.616 246.831 392.553C248.839 393.541 250.919 394.305 253.11 394.772C255.197 395.217 254.308 398.411 252.23 397.967C249.764 397.441 247.418 396.526 245.16 395.414ZM256.044 343.716C258.105 343.151 258.977 346.349 256.924 346.912C253.314 347.902 249.596 348.417 245.958 349.298C243.885 349.8 243.008 346.604 245.078 346.103C248.716 345.221 252.434 344.707 256.044 343.716ZM302.217 327.493C304.312 327.881 303.419 331.074 301.337 330.689C299.12 330.278 296.873 330.272 294.625 330.27C292.491 330.27 292.495 326.956 294.625 326.957C297.179 326.958 299.7 327.027 302.217 327.493ZM452.803 344.805C447.394 344.287 441.976 343.873 436.551 343.562C436.298 343.549 436.05 343.533 435.797 343.52C435.768 343.463 435.731 343.408 435.694 343.35C433.923 340.749 432.619 338.148 431.489 335.207C430.409 332.407 429.362 329.521 427.698 326.994C425.801 324.115 423.239 321.863 420.431 319.911C418.728 321.057 417.148 322.399 415.702 323.821C414.18 325.318 411.838 322.975 413.361 321.478C414.646 320.214 416.017 319.047 417.467 317.992C415.793 316.973 414.085 316.017 412.419 315.065C406.173 311.499 399.779 308.202 393.253 305.187C390.219 303.782 387.148 302.535 384.057 301.272C382.393 300.593 380.75 299.719 379.087 298.932C379.207 297.756 378.855 296.438 377.953 295.664C377.286 295.096 376.769 294.885 375.974 294.484C375.796 294.421 375.689 294.384 375.639 294.363C375.676 294.372 375.784 294.405 375.961 294.463C376.384 294.658 376.417 294.599 376.061 294.293C376.041 293.622 374.72 292.206 374.418 291.514C373.367 289.14 373.04 286.63 371.488 284.468C369.348 281.49 365.756 280.364 362.408 281.374C362.06 277.791 361.969 274.052 360.62 270.854C360.583 270.767 360.463 270.729 360.409 270.825C359.002 273.223 358.882 275.894 358.774 278.661C358.671 281.258 358.77 283.913 359.11 286.494C358.894 286.659 358.675 286.817 358.447 286.97C357.38 287.674 356.229 288.217 355.021 288.619C352.72 289.381 350.307 289.712 347.894 289.828C341.666 290.126 335.247 289.497 329.121 288.428C322.926 287.347 313.428 285.723 307.915 282.621C304.277 280.575 300.921 278.077 297.519 275.658C298.753 271.682 299.067 267.407 297.826 264.048C297.677 263.647 297.048 263.572 296.927 264.048C296.149 267.254 295.922 270.477 294.887 273.645C294.871 273.691 294.854 273.741 294.838 273.786C294.515 273.567 294.192 273.351 293.869 273.136C293.124 272.643 292.11 273.012 291.663 273.716C284.515 284.986 273.197 285.632 261.311 287.646C248.303 289.849 235.23 292.226 222.723 296.538C210.762 300.664 199.332 306.67 190.276 315.641C188.227 317.672 186.31 319.836 184.5 322.096C186.251 322.317 187.987 322.66 189.701 323.199C191.73 323.837 190.858 327.035 188.82 326.394C186.618 325.702 184.391 325.359 182.141 325.189C175.988 333.613 171.191 343.164 167.042 352.566C159.085 370.592 153.906 389.79 151.522 409.334C152.831 408.549 154.163 407.802 155.528 407.106C157.426 406.141 159.099 409 157.2 409.967C155.091 411.041 153.042 412.224 151.057 413.508C150.19 422.063 149.854 430.673 150.058 439.27C150.542 459.764 153.306 480.859 159.56 500.413C162.627 510.01 166.691 519.529 172.745 527.639C175.485 531.312 178.597 534.626 182.264 537.389C184.04 538.731 185.918 539.928 187.901 540.938C190.454 542.247 193.782 542.678 195.983 544.529C196.708 545.139 197.266 545.942 197.689 546.849C197.444 548.572 197.415 550.299 197.887 552.022C198.036 552.561 198.442 553 198.943 553.211C198.951 553.36 198.951 553.505 198.951 553.646C198.951 553.712 199.05 553.729 199.063 553.663C199.083 553.534 199.104 553.406 199.125 553.273C199.286 553.327 199.456 553.352 199.63 553.352C205.916 553.376 212.21 553.223 218.505 553.009C218.018 551.516 217.491 550.037 216.985 548.545C216.298 546.518 219.496 545.656 220.178 547.664C220.77 549.409 221.389 551.138 221.94 552.889C228.684 552.638 235.427 552.336 242.158 552.114C256.473 551.637 270.784 551.48 285.103 551.178C307.34 550.706 329.739 549.74 352.01 550.685C352.78 549.049 353.643 547.45 354.46 545.837C355.424 543.932 358.28 545.611 357.319 547.509C356.751 548.63 356.162 549.738 355.603 550.857C360.114 551.091 364.62 551.401 369.116 551.824C376.789 552.544 384.388 553.824 392.053 554.62C399.845 555.431 407.469 555.286 415.2 553.998C416.59 553.766 417.41 552.925 417.749 551.881C417.761 551.877 417.77 551.869 417.778 551.857C418.175 551.393 418.548 551.008 418.932 550.672C419.392 550.374 419.889 550.121 420.472 549.897C421.561 549.483 422.695 549.231 423.845 549.061C425.112 548.871 426.395 548.854 427.661 548.697C428.728 548.56 429.772 548.357 430.814 548.108C432.689 547.661 434.469 547.077 436.24 546.302C437.784 545.627 439.178 544.658 440.495 543.602C443.218 541.609 445.577 539.067 447.638 536.424C448.838 534.879 449.968 533.276 450.994 531.607C452.782 528.715 454.305 525.712 455.845 522.685C456.403 521.788 456.913 520.869 457.379 519.931C454.371 519.044 451.333 518.32 448.143 518.269C446.011 518.235 446.011 514.921 448.143 514.955C451.801 515.014 455.262 515.869 458.7 516.888C458.867 516.443 459.028 515.994 459.176 515.54C459.586 514.592 459.925 513.618 460.207 512.632C460.372 512.185 460.538 511.738 460.703 511.29C461.076 509.741 461.448 508.188 461.825 506.635C462.574 504.149 463.165 501.627 463.6 499.071C463.965 497.39 464.246 495.696 464.436 493.981C465.016 489.827 465.488 485.68 465.521 481.48C465.471 478.892 465.306 476.307 465.024 473.735C464.904 471.987 464.701 470.247 464.428 468.52C464.072 465.952 463.72 463.41 463.129 460.874C462.686 459.16 462.243 457.445 461.8 455.73C460.695 452.156 459.391 448.651 457.889 445.226C457.806 445.011 457.388 444.538 457.136 444.534C456.946 444.53 456.68 444.704 456.767 444.936C456.776 444.957 456.784 444.982 456.792 445.002C456.706 444.808 456.623 444.609 456.536 444.414C456.461 444.232 456.172 443.868 455.948 443.872C455.936 443.872 455.923 443.872 455.907 443.876C455.965 443.835 456.019 443.78 456.072 443.719C457.558 441.958 458.522 439.643 459.586 437.605C460.468 435.923 461.299 434.15 461.539 432.249C461.75 430.58 461.465 428.936 460.418 427.585C459.226 426.049 456.983 425.328 458.229 423.108C459.644 420.581 461.726 418.39 459.652 415.52C458.597 414.058 456.925 413.255 455.683 411.983C454.256 410.512 453.576 408.545 453.614 406.536C453.701 406.586 453.817 406.561 453.858 406.436C455.058 402.808 454.189 398.824 452.96 395.29C452.29 393.373 450.87 392.847 449.219 392.752C456.37 378.773 463.062 364.57 469.026 350.04C469.225 349.563 469.419 349.087 469.613 348.611C469.903 347.898 469.291 346.95 468.583 346.792C463.427 345.662 458.055 345.301 452.803 344.805Z" fill="#0D0D0D"/>
<path fill-rule="evenodd" clip-rule="evenodd" d="M397.699 184.584C394.859 149.927 386.209 119.23 345.566 117.922C327.225 118.086 308.502 121.985 291.636 129.201C250.641 149.772 237.634 224.941 273.751 255.199C273.537 255.322 273.485 255.675 273.739 255.846C281.2 260.87 289.494 265.003 297.801 268.477C319.929 277.839 345.977 281.906 368.544 271.75C402.982 257.084 403.499 216.276 397.699 184.584Z" fill="#B3B3B3"/>
<path fill-rule="evenodd" clip-rule="evenodd" d="M465.486 168.43C466.901 167.155 467.957 165.481 468.491 163.605C468.979 161.894 469.012 160.026 468.495 158.32C467.94 156.489 466.744 155.031 467.013 153.126C467.042 152.939 467.079 152.745 467.137 152.55C468.172 148.963 470.717 146.374 469.807 142.398C469.55 141.276 469.066 140.265 468.391 139.47C468.466 138.608 468.532 137.738 468.586 136.869C470.08 133.369 470.026 129.21 468.433 125.764C468.238 124 467.944 122.252 467.531 120.533C467.721 119.013 467.456 117.339 466.968 116.01C466.11 113.67 465.049 111.365 463.899 109.098C464.034 108.478 463.973 107.822 463.632 107.239C463.01 106.18 462.188 105.249 461.349 104.339C460.755 103.278 460.157 102.225 459.564 101.186C459.289 100.708 458.986 100.178 458.651 99.617C459.562 97.9246 460.049 96.2753 459.085 94.2851C458.723 93.5375 457.727 92.9862 456.908 93.0351C456.012 93.0885 455.107 93.1287 454.198 93.163C452.499 91.1095 450.573 89.2659 448.51 88.2047C446.42 86.4319 444.301 84.6923 442.24 82.9154C441.656 82.4101 441.068 81.9048 440.485 81.3995C440.481 81.387 440.477 81.3705 440.473 81.358C440.042 79.7882 439.558 78.2391 439.074 76.6818C438.772 75.7167 438.681 74.7061 437.741 74.18C435.779 73.0824 432.762 72.9084 430.511 72.7221C430.287 72.5232 430.064 72.3286 429.84 72.1298C430.863 69.4043 430.681 66.5091 429.394 63.7796C428.955 62.8518 427.432 62.4334 426.596 63.0464C424.667 64.463 422.379 64.9642 420.115 64.7571C416.787 62.1973 403.366 50.6222 401.292 49.4003C401.267 49.3564 401.246 49.3125 401.219 49.269C400.053 47.406 398.637 45.9099 397.045 44.7104C396.818 44.4731 396.591 44.2353 396.364 43.9976C396.563 42.5773 397.089 41.2059 397.936 40.0586C398.027 39.926 398.131 39.7976 398.234 39.6734C399.716 37.9089 397.907 35.6391 395.838 36.5628C395.689 36.629 395.54 36.6953 395.391 36.7657C393.8 37.4756 392.04 38.2473 390.207 38.8984C389.536 38.647 388.852 38.4192 388.229 38.1682L381.551 35.4813C380.452 35.0389 379.289 34.6641 378.226 34.1443C377.855 31.6761 375.384 30.0574 372.817 30.1419C372.965 29.668 373.186 29.2079 373.498 28.7717C373.589 28.6433 373.688 28.5191 373.792 28.399C375.112 26.8623 373.349 24.0126 371.462 25.3795C371.329 25.4747 371.193 25.57 371.06 25.6653C370.536 26.0335 369.999 26.3789 369.457 26.7136C368.588 26.3342 367.61 26.2476 366.586 26.649C364.319 27.5374 362.229 28.4408 360.233 29.8333C360.151 29.8901 360.067 29.9377 359.985 29.9911C358.995 28.7933 357.422 27.9922 356.005 28.0009C355.976 28.0009 355.954 28.0005 355.928 28.0001C354.869 26.3851 352.928 25.4466 351.053 25.6748C351.179 23.3574 348.861 21.2893 346.751 21.0379C344.285 20.7446 342.063 22.1773 341.323 24.5846C341.117 25.2548 340.911 25.9254 340.705 26.596C338.791 25.6288 336.77 24.8878 334.659 24.5179C329.853 23.6755 325.154 24.5726 320.522 25.908C320.06 26.0413 319.597 26.1784 319.135 26.3151C318.475 25.5493 317.855 24.7652 317.263 24.0333C316.241 22.77 313.786 23.7807 313.952 25.4043C314.067 26.5247 313.612 27.3307 312.88 27.9036C312.076 28.0212 311.299 28.0568 310.127 28.0332C308.578 28.0017 307.873 27.9533 306.253 27.3212C305.498 27.0271 304.558 26.2538 304.118 25.5596C302.432 22.8976 298.148 22.1806 296.108 24.7188C293.961 23.7782 291.25 25.0754 290.058 26.9045C289.434 27.8609 288.133 28.3956 286.495 28.8554C285.266 29.2 284.008 29.4609 282.745 29.6892C282.182 28.925 280.997 28.4126 280.127 29.0534C279.539 29.4887 278.967 29.9356 278.403 30.3937C274.053 30.9935 269.726 31.015 265.579 29.3176C262.068 27.8804 258.844 31.8057 259.423 35.1011C258.406 35.6308 257.303 35.9833 256.298 36.5383C254.107 37.7503 252.308 39.6659 251.211 41.9166C251.014 42.3197 250.837 42.7289 250.667 43.1402C249.848 43.8075 249.038 44.4925 248.248 45.2153C246.932 44.5402 245.62 43.865 244.304 43.1899C243.319 42.6846 241.659 43.0366 241.465 44.3455C241.146 46.4993 240.372 48.2845 239.267 49.7797C235.675 51.6685 232.219 53.7892 228.913 56.1459C225.109 57.3388 221.066 58.0347 217.743 58.8175C216.604 59.0867 215.984 60.5737 216.625 61.5636C217.304 62.6115 217.983 63.6595 218.657 64.7074C216.766 66.5547 214.99 68.4848 213.314 70.4813C208.65 76.0315 204.747 82.116 201.254 88.5609C199.872 89.1201 198.49 89.6751 197.108 90.2343C195.775 90.7727 195.175 92.3218 196.255 93.4608C196.768 94.0034 197.228 94.575 197.621 95.1756C195.663 98.4188 193.358 101.376 190.134 103.315C189.153 103.903 188.417 104.826 188.023 105.874C187.688 106.098 187.357 106.338 187.03 106.583C186.12 107.27 185.569 108.77 186.637 109.66C187.386 110.29 188.09 111.035 188.686 111.859C188.814 112.327 188.946 112.8 189.079 113.268C186.082 116.026 183.591 119.232 181.72 122.827C181.278 122.757 180.822 122.802 180.454 123.076C177.11 125.549 177.011 129.488 178.356 133.008C177.545 138.314 178.066 143.753 179.63 148.893C177.574 150.947 176.336 153.913 175.831 156.771C174.941 161.791 174.879 169.511 174.648 174.635C172.404 176.801 170.807 179.605 169.917 182.621C169.168 182.993 168.419 183.366 167.67 183.739C167.004 184.07 166.515 184.944 166.554 185.682C166.747 189.248 168.216 192.064 170.165 194.616C170.857 196.583 171.879 198.397 173.22 200.137C174.147 201.33 175.053 202.473 175.852 203.761C175.935 203.89 175.984 204.01 176.022 204.093C175.707 204.432 175.446 204.996 175.219 205.397C173.307 208.769 173.278 212.72 175.993 215.657C174.97 216.494 174.937 218.184 175.839 219.219C181.712 225.933 186.608 234.097 194.757 237.663C194.794 237.725 194.827 237.787 194.856 237.85C193.205 241.826 192.981 243.893 194.331 248.001C194.339 248.039 194.351 248.072 194.364 248.109C195.084 250.263 196.408 253.713 198.796 254.384C199.549 254.596 200.29 254.691 201.023 254.687C202.918 256.513 204.809 258.344 206.701 260.175C206.866 261.082 206.97 261.997 207.003 262.921C207.057 264.466 208.509 265.717 210.074 265.261C210.624 265.1 213.67 262.138 214.229 262.155C214.51 262.436 214.783 262.718 215.057 263.004C216.062 264.06 217.457 265.725 217.573 266.831C217.796 268.914 219.162 271.3 221.368 271.723C222.196 272.563 223.52 272.816 224.534 271.718C224.6 271.648 224.666 271.578 224.737 271.515C224.844 271.503 224.948 271.491 225.055 271.478C225.544 272.936 226.032 274.394 226.525 275.848C227.489 278.714 231.172 280.557 233.788 278.884C234.21 279.137 234.624 279.406 235.038 279.675C235.667 280.077 236.304 280.487 236.958 280.872C236.995 280.98 237.032 281.087 237.066 281.191C237.488 282.479 239.242 283.171 240.323 282.429C240.658 282.537 241.001 282.624 241.349 282.695C243.174 283.055 245.012 282.955 246.775 282.347C248.037 281.916 249.241 281.092 250.599 280.98C250.684 280.973 250.771 280.979 250.857 280.976C251.964 283.247 254.495 285.203 256.49 285.868C259.102 286.739 261.775 286.428 264.154 285.361C264.796 286.646 265.602 287.862 266.565 288.986C267.099 289.607 268.064 289.475 268.614 288.986C269.659 288.059 270.698 287.127 271.735 286.194C272.486 285.904 273.244 285.557 274.034 285.234C276.507 284.223 279.217 283.804 281.504 282.344C282.589 281.65 283.61 280.766 284.451 279.74C286.035 278.825 287.491 277.685 288.802 276.378C289.456 276.382 290.139 276.229 290.801 275.893C293.57 274.485 295.026 271.619 295.155 268.686C297.398 263.405 298.722 257.772 299.086 252.007C299.202 250.114 299.223 248.204 299.078 246.312C298.979 244.978 298.643 244.087 298.139 242.882C297.969 242.489 297.816 242.128 297.696 241.731C297.725 240.455 297.741 239.179 297.758 237.908C298.101 236.835 298.714 235.837 299.566 234.996C300.887 233.695 301.491 230.995 300.291 229.388C299.508 228.348 298.73 227.308 297.948 226.269C298.168 221.808 299.235 214.708 296.868 213.963C296.963 213.3 297.166 212.646 297.282 211.987C297.836 208.823 297.505 205.994 295.825 203.227C295.473 202.651 295.175 202.142 294.931 201.645C294.778 200.733 294.625 199.822 294.472 198.911C294.236 197.507 294.004 196.09 293.805 194.665C293.702 192.851 293.607 191.037 293.503 189.219C293.408 187.545 293.301 185.872 293.189 184.195C293.234 183.445 293.301 182.695 293.396 181.946C293.963 177.476 295.788 175.824 298.95 172.717C299.446 172.639 299.939 172.552 300.423 172.452C302.679 171.984 305.038 171.259 307.359 171.52C309.88 171.802 312.135 172.891 314.585 171.499C315.305 171.085 316.89 169.942 317.027 169.035C317.035 168.977 317.048 168.927 317.064 168.89C317.234 168.865 317.453 168.845 317.59 168.84C319.535 168.774 321.393 169.54 323.355 169.329C325.677 169.081 327.754 168.049 329.12 166.521C330.871 166.952 332.658 167.146 334.475 166.906C335.998 166.707 337.364 166.21 338.713 165.473C339.694 164.943 339.384 164.79 340.451 165.22C342.881 166.206 345.078 167.507 347.814 166.832C349.233 166.484 350.458 165.717 351.489 164.686C351.733 164.446 352.147 164.085 352.424 163.746C353.724 164.404 356.993 165.891 357.531 166.024C359.054 166.397 360.668 166.339 362.15 165.842C363.238 165.477 364.571 164.483 365.527 164.28C366.764 164.015 369.512 165.738 370.99 166.33C373.581 167.37 376.325 167.627 378.948 166.554C379.851 166.185 381.605 164.715 382.28 164.727C383.377 166.082 386.439 173.492 387.358 176.196C391.079 187.131 392.043 221.273 390.325 229.984C390.259 230.241 390.189 230.493 390.118 230.75C388.008 238.326 385.81 246.03 382.28 253.088C378.948 259.74 374.342 265.729 367.733 269.362C360.879 273.131 352.834 274.121 345.128 273.611C340.166 273.288 335.286 272.29 330.486 271.039C327.978 270.389 325.49 269.664 323.016 268.91C321.935 268.583 320.839 268.276 319.779 267.895C317.909 267.22 316.928 267.166 315.136 268.032C313.505 268.819 313.087 271.143 313.936 272.605C315.318 274.99 317.851 275.156 320.296 275.852C322.788 276.56 325.288 277.24 327.804 277.848C332.625 279.008 337.525 279.899 342.467 280.309C351.315 281.05 360.432 279.907 368.486 276.043C369.397 275.604 370.274 275.135 371.122 274.63C370.808 275.069 370.489 275.508 370.166 275.943C369.272 277.148 369.935 279.199 371.189 279.857C371.586 280.064 371.983 280.263 372.385 280.458C372.438 280.586 372.496 280.715 372.563 280.843C373.709 283.146 376.109 284.505 378.555 285.093C381.461 285.789 384.713 285.296 387.668 285.209C390.408 285.126 393.148 285.043 395.883 284.96C396.529 284.944 397.175 284.923 397.82 284.902C401.073 284.803 404.322 284.708 407.571 284.608C410.468 284.521 410.331 284.745 413.05 283.585C414.263 283.063 415.256 282.326 416.092 281.344C416.614 281.112 417.118 280.847 417.603 280.545C419.159 279.576 420.541 278.275 421.816 276.842C423.98 277.525 427.014 276.892 427.436 274.17C428.115 269.817 433.768 267.957 436.408 264.81C438.54 262.271 440.063 258.945 439.984 255.751C445.356 253.15 448.278 246.295 448.961 240.48C449.279 237.783 449.23 234.896 449.689 232.154C449.892 231.935 450.074 231.703 450.227 231.454C451.576 229.272 452.752 227.022 453.786 224.72C455.193 223.705 456.886 223.079 458.657 222.976C463.011 222.723 463.831 216.846 459.68 215.429C459.659 215.421 459.642 215.417 459.622 215.408C460.747 212.592 460.652 209.258 459.286 206.59C459.344 206.3 459.398 206.014 459.452 205.725C461.782 203.219 463.119 199.735 462.97 196.343C464.033 195.593 465.225 195.013 466.529 194.653C468.544 194.098 468.557 191.638 467.067 190.536C466.467 190.093 465.97 189.575 465.556 189.003C466.587 185.905 466.181 182.322 464.075 179.779C465.412 178.064 466.748 176.35 468.085 174.635C468.971 173.5 469.438 171.574 468.085 170.497C467.22 169.805 466.355 169.118 465.486 168.43Z" fill="#0D0D0D"/>
<path fill-rule="evenodd" clip-rule="evenodd" d="M367.91 232.794C369.33 230.286 373.567 230.694 374.215 233.618C375.529 239.547 368.465 245.022 363.099 245.159C357.768 245.294 351.785 240.753 352.557 235.016C352.748 233.597 354.642 233.769 355.287 234.659L355.538 235C357.292 237.358 359.605 239.798 362.86 239.223C364.208 238.986 365.433 238.142 366.249 237.057C367.232 235.747 367.124 234.182 367.91 232.794ZM334.007 189.419C334.73 189.22 335.459 189.297 336.099 189.569C337.529 189.831 338.723 191.024 339.142 192.386C339.176 192.504 339.213 192.621 339.253 192.736L339.317 192.908L339.146 192.471C339.225 192.901 339.574 193.353 339.7 193.785C339.855 194.315 339.893 194.918 339.841 195.502C340.295 195.506 340.749 195.522 341.203 195.561L341.641 195.6C344.093 195.828 346.784 196.247 348.237 198.366C349.053 199.558 348.287 201.702 346.788 201.932C344.48 202.285 342.491 201.007 340.191 200.751C338.017 200.509 335.741 200.647 333.595 201.04C329.164 201.851 325.092 203.649 320.774 204.777L320.186 204.926L320.187 204.923C319.447 205.102 318.607 204.072 319.339 203.47C322.798 200.626 327.227 198.321 331.591 196.917C330.955 195.905 330.758 194.572 331.193 193.486C331.26 193.261 331.344 193.042 331.432 192.824L331.616 192.375C331.633 192.163 331.674 191.954 331.733 191.749L331.742 191.686L331.748 191.69C332.072 190.633 332.921 189.719 334.007 189.419ZM378.143 189.582C379.089 188.635 380.419 188.775 381.406 189.521L381.537 189.623C382.468 190.037 383.238 190.941 383.744 191.779C384.269 192.65 384.618 193.536 384.632 194.494C386.922 194.501 389.116 195.189 390.797 197.04C391.34 197.637 391.711 198.558 391.412 199.368L391.234 199.85C390.67 201.379 388.131 202.259 387.268 200.461L387.229 200.373C386.312 198.238 382.793 198.462 380.923 198.68C379.619 198.833 378.331 199.157 377.072 199.52C376.629 199.648 376.189 199.787 375.75 199.929L375.311 200.072C375.077 200.147 373.857 200.81 374.616 200.654C374.82 200.611 374.973 200.909 374.765 201.008C373.861 201.441 372.895 200.579 372.956 199.607C373.06 197.919 375.739 196.993 377.028 196.411L377.105 196.376C377.599 196.147 378.117 195.928 378.651 195.725C378.351 195.277 378.103 194.78 377.896 194.247C377.701 193.743 377.57 193.253 377.499 192.718C377.428 192.456 377.428 192.194 377.499 191.932L377.51 191.857C377.473 191.684 377.456 191.505 377.458 191.325L377.451 191.255H377.458C377.483 190.624 377.734 189.992 378.143 189.582ZM363.026 207.561C366.661 208.685 372.657 211.747 370.763 216.473C368.118 220.814 361.104 217.624 357.705 216.221C354.651 215.209 353.061 219.492 356.014 220.783C380.414 230.444 380.325 204.947 363.91 205.321C362.103 205.362 362.046 207.187 363.026 207.561ZM330.743 174.314L331.363 174.133C334.585 173.199 337.874 171.586 340.734 174.103C341.857 175.091 342.089 177.145 341.285 178.377C339.454 181.186 336.739 180.757 333.782 180.996C331.53 181.179 329.313 181.84 327.211 182.668C325.493 183.344 323.901 184.296 322.397 185.358C320.919 186.402 319.91 188.035 318.394 188.975C317.839 189.319 317.197 188.965 316.998 188.406C316.291 186.424 317.485 183.955 318.496 182.266C319.73 180.206 321.604 178.521 323.619 177.246C325.825 175.85 328.265 175.044 330.743 174.314ZM377.69 172.182C383.136 172.18 388.376 175.211 391.422 179.655C392.457 181.165 391.698 183.402 390.213 184.271C388.546 185.247 386.764 184.544 385.665 183.146L385.6 183.061C383.853 180.733 381.602 178.899 378.932 177.706C377.63 177.123 376.19 176.65 374.781 176.411L374.326 176.333C373.687 176.225 372.947 176.123 372.37 176.223C372.061 176.264 371.777 176.366 371.515 176.522C371.641 176.797 371.316 177.128 371.016 176.964C369.663 176.22 369.829 174.893 370.947 173.861C372.528 172.402 375.647 172.182 377.69 172.182Z" fill="#0D0D0D"/>
<path fill-rule="evenodd" clip-rule="evenodd" d="M365.584 223.678C360.982 221.603 352.717 223.413 349.717 224.133C342.741 225.807 335.724 229.425 333.555 235.094C331.111 241.482 335.987 243.493 336.704 243.164C341.533 243.505 347.284 240.467 352.344 239.683C356.452 239.041 360.786 238.48 364.635 236.296C367.445 237.843 373.792 238.679 378.914 240.032C383.276 241.183 385.166 243.68 389.211 243.149C394.058 242.513 392.074 232.31 386.672 228.177C380.759 223.654 370.76 221.819 365.584 223.678ZM374.697 267.303C370.671 268.285 370.4 259.453 369.949 256.332C369.597 253.894 367.609 247.607 362.57 247.878C357.531 248.15 355.637 253.417 355.893 256.693C356.058 258.818 358.014 269.579 351.77 270.941C347.79 270.927 343.184 270.658 338.998 269.885C334.072 268.769 327.666 264.859 325.973 272.559C325.364 275.33 347.066 283.563 356.696 284.307C366.463 286.288 377.889 283.242 384.843 275.765C386.425 274.064 390.88 267.003 391.197 265.273C391.864 261.639 390.32 259.3 385.826 260.581C382.652 262.277 377.287 266.671 374.697 267.303Z" fill="#0D0D0D"/>
<path fill-rule="evenodd" clip-rule="evenodd" d="M402.168 210.063C397.143 215.259 388.755 216.75 382.07 213.963C364.905 206.786 373.307 184.399 386.545 178.387C388.199 177.974 390.408 176.995 392.422 176.773C392.604 176.684 393 176.943 393.481 176.698C408.078 178.329 411.402 201.007 402.168 210.063ZM346.803 211.393C341.168 218.874 330.69 221.182 322.13 217.704C305.219 211.039 311.217 191.187 322.787 183.404C347.229 174.213 357.321 197.6 346.803 211.393ZM310.144 194.818C310.128 194.81 310.112 194.806 310.096 194.799C310.185 194.76 310.275 194.72 310.364 194.68C310.335 194.756 310.303 194.831 310.275 194.907C310.231 194.876 310.193 194.841 310.144 194.818ZM413.802 186.731C412.423 186.734 410.43 186.961 409.287 187.919C406.471 178.412 396.074 169.613 387.032 176.029C379.911 178.321 374.628 183.404 371.625 190.161C366.21 186.938 357.696 188.314 353.001 192.576C349.926 182.408 342.358 178.847 333.351 178.321C323.519 176.709 313.72 186.265 310.662 193.931C308.12 193.642 304.321 192.832 301.929 194.402C286.407 190.328 259.268 188.082 256.112 190.346C253.863 191.209 252.629 196.522 255.771 196.808C258.508 196.419 255.451 192.916 258.21 192.533C272.912 191.621 287.184 194.584 301.729 195.828C303.028 197.576 307.224 198.161 309.463 197.459C305.937 210.463 313.548 219.31 324.952 221.96C342.61 226.019 357.973 210.21 353.355 193.767C358.704 191.104 364.857 191.218 370.684 192.621C360.947 228.486 418.662 226.877 409.648 189.148C415.647 192.134 416.95 187.334 413.802 186.731Z" fill="#0D0D0D"/>
<g filter="url(#filter0_f_440_784)">
<rect x="60" y="487" width="516" height="152" fill="#1A1A1A"/>
</g>
<defs>
<filter id="filter0_f_440_784" x="0" y="427" width="636" height="272" filterUnits="userSpaceOnUse" color-interpolation-filters="sRGB">
<feFlood flood-opacity="0" result="BackgroundImageFix"/>
<feBlend mode="normal" in="SourceGraphic" in2="BackgroundImageFix" result="shape"/>
<feGaussianBlur stdDeviation="30" result="effect1_foregroundBlur_440_784"/>
</filter>
</defs>
</svg>
