<svg width="636" height="666" viewBox="0 0 636 666" fill="none" xmlns="http://www.w3.org/2000/svg">
<path d="M436.148 549.827C497.477 522.322 547.231 474.198 576.763 413.819C606.295 353.44 613.738 284.622 597.8 219.325C581.861 154.028 543.548 96.3789 489.519 56.3965C435.489 16.4142 369.159 -3.37402 302.055 0.470735C234.95 4.31549 171.314 31.5502 122.205 77.4419C73.0954 123.334 41.6175 184.981 33.2412 251.672C24.8649 318.362 40.1198 385.879 76.3549 442.49C112.59 499.101 167.515 541.227 231.584 561.547L236.799 545.104C176.574 526.003 124.945 486.405 90.8836 433.191C56.8227 379.977 42.483 316.51 50.3567 253.821C58.2304 191.132 87.8197 133.184 133.982 90.0454C180.145 46.9072 239.963 21.3066 303.041 17.6925C366.119 14.0784 428.47 32.6794 479.258 70.2628C530.045 107.846 566.06 162.036 581.042 223.416C596.024 284.795 589.027 349.484 561.267 406.24C533.507 462.996 486.738 508.232 429.089 534.087L436.148 549.827Z" fill="#B3B3B3"/>
<path fill-rule="evenodd" clip-rule="evenodd" d="M327.055 246.033C339.852 246.664 359.777 252.147 360.773 255.651C362.328 261.123 358.986 281.636 364.577 292.686C366.96 297.396 376.009 296.974 379.516 298.508C391.248 303.64 425.981 313.374 433.143 325.631C436.012 330.542 453.644 391.472 463.012 422.556C464.069 426.061 465.262 429.302 466.559 432.304L467.035 429.971C470.855 411.184 472.765 399.81 472.765 395.851C472.765 389.664 467.827 363.561 472.765 356.922C477.654 350.351 489.435 344.977 494.736 344.87L494.894 344.869C498.375 344.869 501.394 343.781 503.954 341.607L507.706 339.721C526.796 330.147 537.949 324.896 541.165 323.967C546.298 322.484 555.033 325.643 550.665 330.386C547.754 333.548 540.437 339.142 528.715 347.167L524.296 350.677L524.83 350.956C530.542 353.961 533.9 356.491 534.905 358.544C535.942 360.661 535.444 363.165 533.414 366.057L533.722 366.357C536.29 368.875 537.573 370.564 537.573 371.424V375.626C540.128 379.365 540.766 382.483 539.489 384.98C538.212 387.477 536.187 389.641 533.414 391.472C531.371 396.843 528.938 400.666 526.114 402.941C523.291 405.216 518.412 407.109 511.476 408.622L505.2 423.619L500.115 444.689L497.552 468.199L498.296 468.738C501.745 471.248 503.954 473.109 503.954 475.032C503.954 478.027 490.039 548.479 468.391 551.632C463.709 552.314 439.428 548.969 431.456 542.488L431.574 543.188C433.449 554.511 433.053 560.391 430.383 560.829C397.576 566.204 304.401 567.865 150.859 565.811C149.946 484.366 154.077 430.124 163.252 403.087C186.717 333.937 212.588 310.319 221.64 308.296C229.568 306.524 257.061 295.588 264.746 292.686C269.763 290.791 270.837 285.11 276.554 285.11L277.016 285.113C282.545 285.168 287.448 286.156 290.202 283.315C297.431 275.857 295.41 265.535 298.409 255.651C300.061 250.205 311.352 245.258 327.055 246.033Z" fill="#B3B3B3"/>
<path fill-rule="evenodd" clip-rule="evenodd" d="M291.899 265.56C292.65 264.072 294.644 264.265 295.959 264.94C299.905 267.823 295.777 273.411 294.685 276.929C291.877 283.753 287.001 290.422 280.269 293.612C280.827 300.395 281.459 307.164 281.692 313.968C290.299 324.639 304.811 328.533 317.693 331.528C337.926 337.12 360.761 325.663 367.589 305.675C359.817 301.262 357.302 289.706 359.621 281.644C359.823 281.078 360.701 280.828 361.014 281.46C363.142 285.835 362.858 291.172 365.277 295.494C388.5 297.715 418.471 306.473 433.685 325.242C440.427 334.633 443.098 346.846 446.419 357.729C453.504 380.166 459.149 403.056 466.098 425.516L466.917 421.266C469.162 409.56 471.202 397.695 469.686 385.79L469.659 385.22C469.163 375.747 466.197 358.144 473.548 351.749C480.197 346.671 489.829 342.59 498.173 344.931C513.021 338.327 525.837 327.207 541.651 322.876C546.518 321.875 553.52 323.06 552.369 329.659C549.181 341.2 535.83 345.68 526.703 351.631C532.553 353.215 539.685 360.326 535.114 366.527C535.075 366.636 535.04 366.72 535.005 366.786C538.712 368.427 539.231 372.554 538.321 376.093C538.229 377.028 537.983 376.224 538.532 377.072C542.715 381.014 540.866 392.003 534.565 392.375C534.978 397.582 531.631 402.639 527.392 405.48C522.824 408.54 516.217 408.671 512.435 412.859C503.554 428.509 500.491 446.984 499.523 464.906C505.377 467.095 510.629 473.644 505.311 479.2C505.206 479.212 505.101 479.224 504.994 479.233C501.911 487.456 500.721 496.222 499.09 504.81C496.582 519.463 490.044 532.918 481.696 545.125C472.042 561.283 446.082 558.722 433.004 548.294C433.056 551.029 433.507 553.749 432.631 556.393C431.336 559.246 428.181 558.013 427.869 555.204C420.955 559.089 419.327 546.263 427.012 548.298C426.421 539.025 426.079 529.74 425.801 520.452C417.1 523.266 416.724 508.839 425.624 511.724L425.614 507.736C425.548 477.154 425.886 446.467 429.925 416.126C430.298 413.856 430.931 411.661 431.3 409.404C431.339 409.171 431.704 409.238 431.705 409.461C432.33 451.94 429.552 494.509 432.451 537.002C434.863 537.737 435.825 540.504 437.612 542.116C441.578 545.776 446.979 547.558 452.261 548.179C467.051 550.251 473.436 545.737 480.022 532.889C477.052 534.873 473.038 531.369 474.848 528.229L474.905 528.134C476.785 524.807 482.096 526.801 481.423 530.527C488.045 519.929 491.511 507.979 494.07 495.854L494.417 494.405C495.661 489.258 497.276 483.359 500.264 478.702C482.042 474.061 464.218 459.92 461.367 440.519C456.74 455.045 450.473 469.245 444.499 483.373C442.654 488.286 441.886 493.566 439.241 498.124C438.626 499.177 437.067 498.905 436.719 497.794C434.341 487.167 441.548 477.06 445.289 467.494C448.345 462.087 457.115 437.399 462.553 437.339C456.442 410.574 448.293 384.008 440.532 357.576C433.027 321.886 417.733 315.003 385.334 303.766C391.178 333.529 417.859 362.339 403.661 393.556L403.316 394.366C401.864 397.808 400.658 401.276 401.671 405.054C402.655 408.72 404.896 411.902 406.688 415.199C416.707 433.823 409.811 455.572 405.937 474.966C401.043 497.71 396.209 520.475 391.151 543.184C390.154 547.714 389.508 552.381 388.002 556.771C387.224 559.036 383.346 558.821 383.596 556.178C384.075 551.051 385.515 546.05 386.571 541.015C392.869 508.414 401.391 476.197 406.81 443.454C410.295 419.215 396.573 415.491 397.085 399.83C398.95 391.82 403.887 384.672 403.604 376.136C404.701 350.008 385.658 328.453 383.307 303.041L379.156 301.561C377.082 300.819 375.009 300.071 372.943 299.305C383.817 375.308 380.515 452.972 375.08 529.35C373.969 532.875 375.025 557.494 370.37 555.309C370.135 556.685 369.403 558.037 367.813 558.03C353.375 558.162 338.932 558.391 324.493 558.563C317.548 557.923 308.002 560.573 302.095 556.568C295.275 554.623 294.491 536.163 292.667 529.583L291.956 524.798C280.367 446.606 269.996 366.802 278.326 287.836C266.736 288.281 264.344 300.783 263.484 309.885C261.335 329.976 248.347 347.277 247.724 367.598C247.671 372.528 248.602 377.304 250.574 381.83C255.806 392.921 264.854 405.742 258.091 418.128C250.094 427.77 250.786 430.308 253.721 442.224C261.977 481.617 275.689 519.488 288.733 557.47C285.899 572.232 268.852 517.428 267.249 513.296C259.702 517.088 255.58 504.503 264.236 503.607C258.676 485.01 253.56 466.273 249.301 447.33L249.188 446.796C247.306 438.044 243.605 427.796 249.855 420.032C265.97 403.746 239.209 385.541 242.584 365.811C239.67 367.971 235.257 365.699 235.324 362.071C235.191 357.986 240.681 355.894 243.323 359.01C246.039 343.003 255.489 329.028 258.348 313.067L258.477 312.318C259.446 306.677 259.72 300.742 262.492 295.6C258.718 298.05 254.699 300.03 250.566 301.777C257.956 307.947 243.645 313.577 244.829 304.047C204.299 315.766 195.139 332.108 180.258 369.639C183.037 366.94 187.799 370.433 186.135 373.875C184.808 377.501 179.017 376.441 179.019 372.576L178.341 374.192C169.317 395.756 161.104 417.844 156.977 440.921C165.073 439.779 163.012 452.71 155.676 449.065C152.732 469.588 152.686 490.402 153.046 511.092C159.875 507.513 160.08 519.674 153.112 516.206C153.366 533.161 153.74 550.115 154.021 567.07C154.078 570.679 148.508 570.661 148.42 567.07C147.77 541.019 146.584 514.92 147.148 488.861C146.617 443.632 159.627 400.038 179.012 359.522C196.164 312.871 219.856 307.565 263.445 294.002C267.469 288.033 276.065 282.387 283.079 286.135C287.003 279.805 288.995 272.305 291.899 265.56ZM217.217 428.15C217.38 427.575 218.201 427.719 218.228 428.286C218.592 435.605 218.267 442.971 217.766 450.32C217.463 454.807 217.09 459.289 216.774 463.745C215.935 475.502 215.258 487.271 214.744 499.05C214.924 498.975 215.109 498.909 215.302 498.857C216.189 498.615 217.077 498.615 217.964 498.857C218.755 499.078 219.447 499.464 220.043 500.021L220.169 500.143C220.657 500.595 221.004 501.131 221.206 501.75C221.494 502.301 221.639 502.89 221.639 503.519L221.636 503.677C221.632 504.581 221.408 505.42 220.951 506.201C220.507 506.952 219.91 507.549 219.159 507.997C218.377 508.449 217.537 508.673 216.633 508.677C216.536 508.686 216.439 508.695 216.343 508.699C215.671 508.726 215.043 508.585 214.463 508.282L214.375 508.256C214.156 514.231 213.975 520.21 213.844 526.19C213.725 531.401 213.567 536.612 213.462 541.822L213.413 544.429L213.317 550.19C213.286 552.559 213.301 554.828 212.495 557.062L212.399 557.32C211.819 558.812 211.367 560.889 209.815 561.718C208.577 562.381 206.908 562.136 206.196 560.844C205.599 559.765 206.117 558.21 207 557.482C206.982 557.434 206.956 557.39 206.934 557.342C206.798 556.946 206.591 556.573 206.469 556.174C206.082 554.909 206.187 553.562 206.183 552.249C206.183 549.931 206.262 547.613 206.324 545.299C206.46 540.373 206.618 535.453 206.811 530.531C207.464 514.022 208.693 497.513 210.101 481.051L210.579 475.494C211.216 468.106 211.874 460.709 212.807 453.358C212.851 453.007 212.895 452.656 212.943 452.304C212.442 452.054 211.977 451.707 211.607 451.321C210.128 449.768 209.23 447.446 208.388 445.446L208.195 444.991C207.281 442.857 206.438 440.697 206.003 438.405L205.961 438.195C205.763 437.219 205.371 435.489 206.407 435.016C206.947 434.77 207.29 434.946 207.466 435.486C207.488 435.556 207.47 435.635 207.431 435.697C207.857 436.35 208.524 436.961 208.946 437.567L210.389 439.629L211.103 440.666C212.008 441.996 212.974 443.27 213.971 444.525C214.757 439.011 215.719 433.519 217.217 428.15ZM276.403 551.024C278.209 549.61 281.147 550.379 281.147 552.987C281.147 555.607 278.204 556.363 276.403 554.949L276.314 554.882L276.228 554.813C275.247 554.047 275.214 552.053 276.153 551.222L276.228 551.16C276.284 551.112 276.342 551.068 276.403 551.024ZM197.756 545.928L197.912 545.931C198.729 545.931 199.489 546.138 200.196 546.551C200.503 546.783 200.806 547.02 201.114 547.258C201.676 547.819 202.063 548.487 202.278 549.255L202.441 550.458C202.462 551.081 202.335 551.66 202.049 552.201C201.865 552.762 201.553 553.25 201.114 553.658C200.701 554.102 200.218 554.413 199.656 554.593C199.16 554.855 198.632 554.987 198.067 554.987L197.912 554.984C197.091 554.984 196.33 554.778 195.623 554.365C195.316 554.132 195.012 553.895 194.705 553.658C194.147 553.096 193.756 552.429 193.541 551.66C193.488 551.261 193.436 550.857 193.378 550.458C193.357 549.834 193.488 549.255 193.769 548.715C193.954 548.153 194.266 547.666 194.705 547.258C195.118 546.814 195.601 546.502 196.163 546.322C196.659 546.061 197.191 545.928 197.756 545.928ZM403.38 537.581L404.531 537.735C405.634 537.986 406.521 538.798 407.114 539.724C407.43 540.22 407.601 540.756 407.628 541.331C407.755 541.902 407.729 542.477 407.549 543.052C407.417 543.613 407.158 544.105 406.776 544.522C406.644 544.729 406.49 544.918 406.315 545.084C405.954 545.686 405.41 546.081 404.847 546.485C404.373 546.788 403.859 546.95 403.305 546.977C402.941 547.073 402.572 547.073 402.203 546.977C401.654 546.95 401.14 546.788 400.665 546.485C400.385 546.27 400.104 546.05 399.826 545.835C399.581 545.55 399.352 545.256 399.137 544.948C398.992 544.61 398.851 544.276 398.711 543.943C398.452 543.139 398.579 542.428 398.72 541.625C398.741 541.489 398.777 541.366 398.825 541.234L398.92 540.979C399.173 540.312 399.308 540.086 399.756 539.505L399.927 539.276C400.012 539.163 400.1 539.051 400.2 538.951C400.481 538.662 400.881 538.42 401.197 538.17C401.873 537.779 402.603 537.586 403.38 537.581ZM254.245 534.77L254.392 534.772C255.029 534.776 255.626 534.935 256.18 535.255L256.9 535.813C257.339 536.256 257.642 536.774 257.814 537.376C257.853 537.691 257.897 538.008 257.941 538.319C257.959 538.807 257.858 539.263 257.633 539.689C257.493 540.128 257.247 540.505 256.9 540.83C256.58 541.173 256.197 541.419 255.758 541.564C255.374 541.763 254.962 541.868 254.524 541.869L254.392 541.866C253.75 541.866 253.153 541.704 252.6 541.383L251.879 540.83C251.44 540.387 251.137 539.865 250.965 539.263C250.926 538.947 250.882 538.635 250.838 538.319C250.821 537.832 250.922 537.376 251.146 536.954C251.291 536.515 251.532 536.133 251.879 535.813C252.2 535.466 252.582 535.22 253.021 535.079C253.405 534.878 253.81 534.776 254.245 534.77ZM225.256 533.319C226.173 533.31 227.105 533.569 227.856 534.1C228.585 534.618 229.138 535.176 229.495 536.014C229.591 536.243 229.687 536.467 229.771 536.695C230.149 537.7 230.219 538.71 229.697 539.693C229.192 540.646 228.102 541.063 227.127 541.348C226.301 541.594 225.366 541.634 224.544 541.34C224.136 541.195 223.736 541.041 223.367 540.817C222.677 540.391 222.304 539.886 221.843 539.263C221.482 538.648 221.302 537.981 221.302 537.27C221.302 536.554 221.482 535.892 221.843 535.272C222.549 534.065 223.859 533.328 225.256 533.319ZM178.694 534.166C179.854 534.166 180.873 534.702 181.572 535.606C182.278 536.524 182.537 537.665 182.226 538.803C181.896 540.005 180.899 541.059 179.665 541.362C178.751 541.585 178.004 541.577 177.095 541.423C176.326 541.291 175.738 540.834 175.149 540.36C174.477 539.811 174.271 538.811 174.38 538.003C174.486 537.195 174.86 536.669 175.426 536.19L175.43 536.177L175.219 536.339C175.299 536.269 175.378 536.194 175.457 536.12C175.483 536.076 175.505 536.028 175.527 535.979C175.852 535.426 176.291 534.992 176.84 534.667C177.416 534.333 178.031 534.166 178.694 534.166ZM449.098 520.869C449.735 520.698 450.376 520.698 451.013 520.869C451.484 520.979 451.892 521.194 452.239 521.514C452.591 521.743 452.879 522.036 453.096 522.4L453.166 522.524C453.667 523.376 453.746 524.35 453.53 525.298C453.263 526.47 452.182 527.537 451.013 527.814L450.974 527.821L450.935 527.832C450.46 527.981 449.981 528.003 449.507 527.893C449.028 527.871 448.584 527.731 448.176 527.467C447.658 527.133 447.223 526.703 446.889 526.185C446.625 525.773 446.485 525.329 446.463 524.85C446.38 524.535 446.38 524.218 446.463 523.902C446.485 523.423 446.625 522.98 446.889 522.568L447.451 521.843L447.509 521.795C447.957 521.347 448.488 521.04 449.098 520.869ZM404.874 497.636C410.632 497.636 410.624 506.566 404.874 506.566C399.115 506.566 399.124 497.636 404.874 497.636ZM194.037 496.508C194.644 496.372 195.25 496.398 195.852 496.587C196.216 496.741 196.576 496.894 196.937 497.043L197.859 497.755C198.03 497.9 198.114 498.058 198.272 498.264L198.47 498.523C198.755 498.905 198.762 498.986 199.076 499.801C199.287 500.582 199.287 501.363 199.076 502.145C198.974 502.523 198.821 502.878 198.623 503.207C198.443 503.523 198.226 503.801 197.983 504.056L197.859 504.182C197.446 504.625 196.959 504.937 196.396 505.121C196.041 505.328 195.658 505.429 195.25 505.429C194.644 505.565 194.037 505.539 193.436 505.349C193.071 505.196 192.711 505.042 192.35 504.893L191.428 504.182L190.717 503.26L190.49 502.719L190.26 502.176L190.097 500.968C190.075 500.341 190.203 499.761 190.488 499.217C190.598 498.834 190.791 498.497 191.072 498.215C191.275 497.873 191.546 497.601 191.89 497.399C192.17 497.118 192.509 496.925 192.891 496.815C193.247 496.609 193.629 496.508 194.037 496.508ZM478.862 490.129C479.342 490.112 479.79 490.213 480.203 490.432C480.348 490.481 480.488 490.542 480.624 490.612C481.156 490.924 481.577 491.345 481.889 491.872C482.144 492.276 482.285 492.711 482.307 493.18C482.402 493.604 482.393 494.03 482.278 494.454L482.241 494.581C482.144 494.928 481.999 495.248 481.806 495.542C481.788 495.577 481.766 495.612 481.74 495.643C481.446 496.109 481.055 496.49 480.572 496.776C480.036 497.083 479.46 497.241 478.836 497.246C477.593 497.246 476.522 496.574 475.867 495.542C475.775 495.397 475.722 495.213 475.657 495.064C475.599 494.923 475.507 494.744 475.458 494.581C475.292 493.958 475.292 493.334 475.458 492.711C475.568 492.254 475.775 491.855 476.087 491.516C476.337 491.135 476.666 490.832 477.075 490.612C477.582 490.317 478.126 490.159 478.704 490.133L478.862 490.129ZM235.723 485.761C236.331 485.595 236.936 485.582 237.54 485.723L237.691 485.761C238.174 485.875 238.592 486.095 238.952 486.42C239.351 486.683 239.672 487.03 239.905 487.46C240.239 488.035 240.406 488.659 240.41 489.326C240.406 489.993 240.239 490.617 239.905 491.191C239.575 491.749 239.132 492.188 238.574 492.518L238.091 492.75C237.687 493.005 237.256 493.141 236.79 493.163C236.479 493.246 236.167 493.246 235.86 493.163C235.543 493.163 235.249 493.084 234.977 492.926C234.678 492.842 234.423 492.693 234.203 492.473C233.821 492.227 233.523 491.903 233.303 491.495L232.947 490.656L232.824 489.725L232.947 488.799L233.141 488.343C233.316 487.714 233.633 487.17 234.093 486.71C234.555 486.253 235.099 485.936 235.723 485.761ZM453.561 478.355C454.202 478.153 454.84 478.127 455.477 478.267C455.907 478.267 456.311 478.377 456.685 478.597C457.093 478.71 457.444 478.912 457.743 479.211C458.266 479.549 458.674 479.997 458.978 480.554L459.46 481.701C459.75 482.442 459.645 483.536 459.47 484.282C459.325 484.896 459.043 485.432 458.626 485.888C458.415 486.244 458.134 486.525 457.778 486.736C457.371 487.106 456.902 487.369 456.37 487.525L456.223 487.565L456.171 487.578C456.161 487.583 456.153 487.583 456.144 487.583C456.14 487.588 456.131 487.588 456.126 487.588C455.916 487.64 455.701 487.671 455.477 487.679C454.84 487.82 454.202 487.794 453.561 487.592C453.184 487.434 452.802 487.271 452.419 487.109C452.094 486.863 451.773 486.613 451.449 486.362C451.198 486.038 450.948 485.713 450.697 485.393C450.346 484.844 450.157 484.247 450.131 483.61C450.016 483.184 450.016 482.763 450.131 482.337C450.131 481.902 450.241 481.503 450.455 481.129C450.649 480.533 450.979 480.019 451.449 479.585C451.773 479.334 452.094 479.084 452.419 478.838C452.802 478.675 453.184 478.513 453.561 478.355ZM173.401 462.639C174.064 462.459 174.728 462.459 175.391 462.639L176.282 463.012C176.721 463.249 177.069 463.569 177.332 463.978C177.666 464.337 177.89 464.763 178.004 465.251C178.264 465.918 178.233 466.976 178.027 467.656C177.794 468.429 177.433 469.044 176.876 469.623C175.949 470.58 174.525 470.857 173.265 470.567C172.917 470.488 172.588 470.334 172.289 470.146C171.337 469.557 170.695 468.53 170.7 467.393C170.7 467.27 170.708 467.147 170.726 467.025C170.664 466.774 170.642 466.515 170.651 466.242L170.783 465.251L170.791 465.224C170.968 464.596 171.284 464.052 171.745 463.591C172.171 463.17 172.668 462.864 173.236 462.682L173.379 462.639H173.401ZM504.863 364.06C503.663 354.227 499.151 343.649 485.39 349.423L484.368 349.805C480.963 351.094 476.995 352.786 474.923 355.762C473.495 357.812 473.978 361.785 473.781 364.178C472.884 371.957 473.365 379.725 474.3 387.472C475.506 405.629 471.687 424.441 464.082 440.943C471.693 453.25 481.879 464.73 495.774 469.86C496.362 455.867 499.103 442.13 502.021 428.475L502.135 427.88C503.302 421.722 503.886 415.403 507.933 410.282C516.163 401.351 527.484 406.406 532.901 392.059C531.763 391.484 532.391 389.517 533.762 389.895C538.513 390.738 539.284 381.936 536.033 379.815C532.645 377.751 536.056 373.942 534.614 371.193C533.81 370.008 532.075 369.968 531.288 368.603C529.203 363.576 539.637 360.355 527.367 354.689C524.856 353.797 522.049 354.35 519.516 354.34C515.791 354.688 512.829 357.311 509.422 358.137C513.132 367.737 503.771 376.982 495.322 369.314C490.724 373.657 485.583 383.557 496.759 378.942C502.229 375.294 506.938 370.577 513.288 368.33L513.422 368.289C515.779 367.517 526.094 362.508 525.583 366.843C521.719 370.57 515.347 370.526 510.872 373.551C504.668 376.418 500.701 383.366 493.275 383.27C491.563 393.66 503.36 387.338 507.753 384.473L508.971 383.812C515.168 380.467 521.457 377.367 528.684 377.326C530.678 377.313 530.669 380.386 528.684 380.412C519.266 380.471 511.601 386.354 503.712 390.729C502.935 396.794 511.822 394.138 515.194 393.244C518.73 392.747 524.408 388.925 527.503 390.944C528.713 394.052 523.387 393.821 521.533 394.764C529.998 398.827 522.581 401.386 520.311 395.141L519.647 395.367C513.978 397.271 500.232 401.19 501.867 391.594C499.793 392.511 497.263 393.06 494.97 392.551C489.253 401.002 480.134 397.732 493.389 391.971C490.402 390.583 489.405 385.222 492.274 383.226C481.84 382.59 489.586 371.649 493.905 368.003C493.497 367.592 493.102 367.171 492.734 366.746C490.244 367.931 487.626 368.651 484.827 368.906C482.148 369.147 481.551 364.59 484.195 364.217C487.029 363.818 489.638 363.063 492.133 361.64C495.914 360.008 497.205 367.02 500.989 367.268C503.053 367.677 504.449 365.868 504.863 364.06ZM417.02 454.534C417.933 454.534 418.745 454.917 419.409 455.522C420.072 456.128 420.357 457.037 420.397 457.906C420.415 458.371 420.318 458.806 420.107 459.21C419.971 459.627 419.738 459.987 419.409 460.295C418.794 460.904 417.884 461.282 417.02 461.282C416.106 461.282 415.293 460.9 414.63 460.295C413.967 459.684 413.681 458.78 413.641 457.906C413.624 457.445 413.721 457.01 413.931 456.606C414.054 456.231 414.254 455.898 414.534 455.615L414.63 455.522C415.245 454.908 416.154 454.534 417.02 454.534ZM444.704 433.714L444.851 433.716C445.624 433.721 446.34 433.914 447.007 434.3C447.297 434.524 447.587 434.744 447.873 434.968C448.404 435.503 448.769 436.131 448.971 436.856C449.178 437.611 449.178 438.37 448.971 439.125C448.901 439.56 448.739 439.982 448.484 440.346C448.106 440.973 447.605 441.479 446.972 441.851C446.318 442.234 445.611 442.422 444.851 442.426C444.091 442.422 443.384 442.234 442.729 441.851C442.096 441.479 441.596 440.973 441.222 440.346C440.963 439.982 440.801 439.56 440.73 439.125C440.524 438.37 440.524 437.611 440.73 436.856C440.918 436.183 441.246 435.593 441.717 435.084L441.829 434.968C442.215 434.551 442.672 434.257 443.203 434.085C443.671 433.84 444.171 433.716 444.704 433.714ZM233.421 433.949C233.747 433.861 234.067 433.861 234.392 433.949C234.876 433.971 235.328 434.116 235.745 434.38C235.991 434.572 236.237 434.762 236.483 434.95L236.698 435.208C237.156 435.766 237.168 435.861 237.519 436.711C237.665 437.185 237.687 437.659 237.581 438.133C237.581 438.454 237.498 438.752 237.339 439.029C237.252 439.332 237.103 439.595 236.879 439.815C236.72 440.082 236.51 440.297 236.241 440.456C235.899 440.767 235.495 440.982 235.029 441.092L234.084 441.219C233.962 441.202 233.835 441.184 233.712 441.171C233.563 441.167 233.419 441.15 233.278 441.123L233.136 441.092L233.006 441.057C232.834 441.007 232.666 440.94 232.504 440.855C232.196 440.767 231.928 440.614 231.699 440.385C231.304 440.131 230.988 439.788 230.76 439.362L230.698 439.222C230.615 439.072 230.544 438.919 230.491 438.752C230.342 438.489 230.268 438.208 230.263 437.905C230.176 437.502 230.182 437.102 230.286 436.703L230.325 436.57L230.663 435.767C230.839 435.495 231.023 435.218 231.26 434.994C231.403 434.867 231.751 434.596 231.948 434.459L232.068 434.38C232.486 434.116 232.938 433.971 233.421 433.949ZM180.464 427.672C181.097 425.182 184.365 424.397 186.144 426.175C187.923 427.953 187.137 431.219 184.647 431.851L184.361 431.921C181.953 432.531 179.783 430.358 180.394 427.953L180.464 427.672ZM481.959 407.367C481.942 407.121 482.258 407.034 482.416 407.179C484.534 409.075 485.882 411.35 488.452 412.82C491.035 414.295 493.696 414.176 496.389 415.129C497.303 415.454 497.307 416.675 496.389 416.995C491.294 418.773 482.346 412.745 481.959 407.367ZM242.54 406.981C243.108 406.806 243.679 406.779 244.245 406.907C244.632 406.907 244.992 407.003 245.321 407.196C245.686 407.297 245.998 407.482 246.265 407.745C246.586 407.934 246.841 408.193 247.034 408.513C247.412 408.926 247.667 409.409 247.798 409.962L247.948 411.099L247.798 412.236C247.653 412.574 247.508 412.917 247.368 413.255L246.975 413.786C246.657 414.21 246.606 414.215 245.835 414.787C245.343 415.098 244.812 415.27 244.245 415.292C243.867 415.397 243.489 415.397 243.108 415.292C242.725 415.292 242.365 415.195 242.031 415.002C241.671 414.901 241.355 414.716 241.086 414.453C240.621 414.15 240.257 413.751 239.988 413.255C239.843 412.917 239.699 412.574 239.558 412.236L239.404 411.099L239.558 409.962L239.567 409.927C239.769 409.216 240.129 408.597 240.647 408.074L241.5 407.415C241.833 407.201 242.18 407.091 242.54 406.981ZM447.592 407.833C448.808 407.499 450.144 407.85 451.035 408.742C451.927 409.633 452.279 410.963 451.945 412.179C451.616 413.364 450.662 414.325 449.472 414.646C449.116 414.742 448.756 414.796 448.391 414.778C447.78 414.774 447.21 414.62 446.678 414.313L445.993 413.781C445.659 413.474 445.426 413.11 445.29 412.688C445.075 412.284 444.978 411.85 444.995 411.38L444.992 411.297C444.978 411.13 445 410.963 445.053 410.801C445.053 410.629 445.079 410.462 445.123 410.3C445.444 409.115 446.41 408.157 447.592 407.833ZM185.283 395.945C185.674 395.931 186.039 396.01 186.377 396.19C186.733 396.304 187.036 396.497 187.29 396.778C187.572 397.033 187.765 397.34 187.879 397.692C188.059 398.03 188.138 398.394 188.125 398.785C188.125 399.298 187.993 399.777 187.738 400.216C187.589 400.41 187.44 400.602 187.29 400.791C186.939 401.147 186.522 401.388 186.039 401.524L185.757 401.621C185.344 401.77 184.94 401.779 184.51 401.722C184.057 401.66 183.64 401.537 183.271 401.256C182.911 401.046 182.625 400.76 182.415 400.4L182.173 399.83C182.12 399.637 182.098 399.347 182.085 399.145C182.085 399.114 182.085 399.088 182.081 399.057C182.081 398.886 182.133 398.469 182.177 398.297C182.274 397.937 182.471 397.595 182.696 397.305C182.889 397.003 183.153 396.765 183.478 396.59L183.507 396.568L183.539 396.546C183.64 396.476 183.746 396.405 183.851 396.33C184.29 396.076 184.769 395.945 185.283 395.945ZM412.113 392.827C412.816 392.827 413.47 393.007 414.076 393.359C414.098 393.367 414.12 393.376 414.137 393.385C414.718 393.727 415.179 394.189 415.522 394.768C415.873 395.369 416.048 396.019 416.048 396.713C416.048 397.411 415.873 398.056 415.522 398.657C415.179 399.237 414.718 399.698 414.137 400.041C414.12 400.053 414.098 400.062 414.076 400.071C413.47 400.422 412.816 400.598 412.113 400.602C411.415 400.598 410.76 400.422 410.153 400.071C408.968 399.377 408.225 398.082 408.225 396.713C408.225 395.342 408.968 394.048 410.153 393.359C410.76 393.007 411.415 392.827 412.113 392.827ZM229.696 387.751L229.815 387.748C230.281 387.73 230.715 387.827 231.115 388.043C231.532 388.178 231.897 388.411 232.205 388.741L232.846 389.276L233.032 389.426C233.063 389.452 233.093 389.478 233.123 389.504C233.554 389.939 233.848 390.448 234.015 391.036C234.067 391.375 234.111 391.708 234.147 392.046C234.243 392.924 233.725 393.824 233.154 394.448C232.846 394.777 232.481 395.009 232.06 395.15C231.656 395.361 231.217 395.457 230.751 395.439C229.797 395.356 228.893 395.154 228.208 394.417C228.128 394.329 228.054 394.237 227.975 394.144L227.426 393.512C227.009 393.091 226.718 392.595 226.56 392.024C226.516 391.721 226.477 391.423 226.437 391.124C226.398 390.224 226.837 389.381 227.426 388.741C227.97 388.147 228.892 387.784 229.696 387.751ZM207.523 378.507C212.091 378.507 212.082 385.589 207.523 385.589C202.959 385.589 202.967 378.507 207.523 378.507ZM437.204 368.579L437.348 368.581C438.104 368.585 438.811 368.774 439.466 369.156L440.317 369.81C440.836 370.337 441.196 370.952 441.398 371.663C441.446 372.036 441.495 372.409 441.548 372.778C441.57 373.357 441.446 373.897 441.183 374.398C441.016 374.916 440.726 375.368 440.317 375.75C439.936 376.158 439.487 376.448 438.965 376.615C438.464 376.878 437.924 377.001 437.348 376.979C436.588 376.974 435.881 376.786 435.226 376.404C434.941 376.185 434.66 375.965 434.375 375.75C433.896 375.264 433.552 374.703 433.347 374.06L433.298 373.897L433.145 372.778C433.123 372.203 433.245 371.663 433.509 371.162C433.676 370.64 433.966 370.192 434.375 369.81C434.757 369.402 435.209 369.112 435.728 368.945C436.186 368.704 436.679 368.58 437.204 368.579ZM416.628 355.323C417.037 355.31 417.414 355.393 417.771 355.578C418.135 355.696 418.451 355.902 418.719 356.188C419.286 356.64 419.633 357.544 419.633 358.277C419.633 359.01 419.286 359.915 418.719 360.367C418.35 360.731 417.915 360.986 417.414 361.126L416.628 361.232C415.864 361.267 415.086 360.868 414.542 360.367C414.432 360.266 414.326 360.165 414.217 360.068C413.721 359.612 413.505 358.931 413.474 358.277C413.461 357.931 413.536 357.606 413.694 357.303C413.795 356.987 413.971 356.719 414.217 356.486C414.326 356.39 414.432 356.289 414.542 356.188C415.135 355.639 415.829 355.363 416.628 355.323ZM546.992 331.709C549.878 328.195 548.198 325.694 543.86 326.563C536.388 327.573 529.356 332.293 522.776 335.677C515.593 339.468 508.191 342.595 500.865 346.158C503.888 348.012 506.136 350.916 507.853 354.23C511.282 351.628 515.664 350.384 519.942 350.222C527.704 342.793 540.557 341.092 546.992 331.709ZM205.986 343.374C206.768 343.377 207.502 343.561 208.189 343.928L208.335 344.01L209.275 344.738C209.732 345.16 210.053 345.66 210.242 346.235C210.532 346.789 210.663 347.39 210.642 348.031C210.663 348.672 210.532 349.269 210.242 349.822C210.053 350.402 209.732 350.898 209.275 351.319C209.016 351.657 208.682 351.921 208.283 352.114C207.909 352.267 207.54 352.425 207.167 352.584C206.75 352.715 206.266 352.733 205.814 352.755C204.993 352.75 204.229 352.544 203.516 352.131L202.594 351.421C202.151 351.007 201.834 350.52 201.649 349.954C201.388 349.455 201.256 348.923 201.256 348.354L201.259 348.198C201.259 348.163 201.259 348.123 201.264 348.084C201.316 347.671 201.374 347.258 201.43 346.846C201.575 346.24 201.852 345.709 202.265 345.261C202.37 345.05 202.511 344.879 202.691 344.738C203.271 344.159 203.956 343.764 204.747 343.54C205.16 343.487 205.572 343.43 205.986 343.374ZM409.8 331.742L409.934 331.744C410.527 331.744 411.076 331.893 411.586 332.187C411.809 332.359 412.029 332.53 412.249 332.701C412.658 333.109 412.939 333.592 413.092 334.145L413.211 335.014C413.224 335.467 413.132 335.884 412.925 336.275C412.794 336.678 412.569 337.029 412.249 337.328C411.954 337.648 411.603 337.872 411.195 338.004C410.808 338.21 410.386 338.303 409.934 338.285C409.345 338.285 408.792 338.136 408.282 337.837C408.063 337.67 407.839 337.499 407.619 337.328C407.248 336.954 406.981 336.517 406.821 336.02L406.78 335.884L406.662 335.014C406.644 334.562 406.736 334.145 406.942 333.754C407.074 333.347 407.303 332.995 407.619 332.701C407.918 332.38 408.269 332.156 408.674 332.025C409.025 331.839 409.402 331.746 409.8 331.742ZM231.661 326.987L231.814 326.989C232.688 326.994 233.501 327.213 234.256 327.652C234.581 327.903 234.907 328.153 235.231 328.408C235.833 329.009 236.246 329.72 236.479 330.541L236.65 331.823C236.676 332.49 236.536 333.109 236.233 333.684C236.04 334.286 235.706 334.804 235.231 335.243C234.797 335.713 234.278 336.046 233.676 336.24C233.101 336.542 232.481 336.683 231.814 336.656C230.94 336.656 230.127 336.437 229.371 335.998C229.047 335.747 228.722 335.493 228.392 335.243C227.795 334.637 227.382 333.926 227.149 333.109L226.978 331.823C226.951 331.16 227.092 330.537 227.395 329.961C227.588 329.365 227.922 328.842 228.392 328.408C228.832 327.933 229.35 327.599 229.951 327.406C230.482 327.127 231.051 326.989 231.661 326.987ZM394.31 314.917C394.709 314.811 395.109 314.811 395.508 314.917C396.106 314.943 396.664 315.123 397.182 315.452L398.092 316.155C398.104 316.168 398.118 316.181 398.131 316.199C398.68 316.751 399.062 317.406 399.273 318.157L399.431 319.338C399.453 319.948 399.326 320.518 399.049 321.045C398.884 321.552 398.612 321.993 398.236 322.374L398.092 322.516C397.683 322.955 397.204 323.266 396.646 323.446C396.295 323.653 395.913 323.754 395.508 323.754C394.911 323.89 394.31 323.864 393.712 323.675C393.357 323.521 392.996 323.372 392.636 323.223L392.521 323.157C391.164 322.415 390.325 320.861 390.325 319.338C390.325 317.814 391.164 316.255 392.521 315.513C392.561 315.496 392.596 315.474 392.636 315.452C393.154 315.123 393.712 314.943 394.31 314.917Z" fill="#0D0D0D"/>
<path fill-rule="evenodd" clip-rule="evenodd" d="M390.095 84.009C366.609 77.1197 285.836 84.1815 283.838 85.6737C280.57 88.3881 264.671 97.0008 262.197 98.9671C239.828 122.662 261.153 157.85 259.512 186.435C259.616 196.574 255.293 205.832 253.306 215.586C252.467 220.698 252.652 225.985 255.318 230.575C260.004 238.775 269.902 240.438 277.952 243.744C281.958 245.468 285.7 247.912 289.131 250.586C312.229 271.007 325.086 284.992 358.789 280.385C358.962 281.993 360.387 283.573 362.154 282.854C366.292 281.17 370.4 279.384 374.574 277.787C375.466 279.936 378.029 280.549 379.765 278.652L379.775 278.665C387.501 272.402 392.415 263.837 396.064 254.668C398.618 249.379 400.709 243.859 402.307 238.176C402.488 237.533 402.464 236.958 402.301 236.464C409.674 211.07 412.403 184.306 410.462 157.941C410.069 152.501 409.041 146.989 409.293 141.527C409.522 136.591 411.649 131.923 413.271 127.326C421.633 107.787 408.85 90.1613 390.095 84.009Z" fill="#B3B3B3"/>
<path fill-rule="evenodd" clip-rule="evenodd" d="M393.05 52.2829L393.3 52.0889C396.008 49.9656 398.561 47.183 402.379 48.2264C405.511 49.0825 407.093 51.6727 407.765 54.8028C408.718 53.8062 409.645 52.7746 410.55 51.7078C413.01 48.8103 418.505 50.3117 419.238 54.0038C420.723 61.4406 420.798 69.0091 419.352 76.4591C419.133 77.5873 418.874 78.7112 418.571 79.8219C420.218 77.7717 421.751 75.6337 423.126 73.3816C424.615 70.9363 427.98 72.148 428.212 74.7601C428.274 75.4362 428.309 76.121 428.318 76.8103C429.368 77.179 430.092 78.259 429.816 79.5848C428.287 86.8811 426.35 94.0765 424.022 101.149C427.764 99.1646 431.959 97.9881 435.908 99.3885C442.181 101.619 443.674 108.458 442.449 114.346C440.907 121.747 436.058 127.942 429.802 132.002C429.06 133.118 428.327 134.241 427.628 135.387C427.615 138.623 427.026 141.849 425.84 144.848C424.505 148.215 422.151 151.126 419.251 153.338C418.233 155.556 415.534 157.176 413.165 156.727L413.04 156.701L413.036 156.705C413.642 158.874 414.165 161.065 414.617 163.26C418.12 180.266 416.347 197.969 413.152 214.879L413.049 215.418C410.181 230.468 406.842 246.052 400.354 260.026C394.486 272.661 384.537 283.772 370.318 286.529C353.591 289.773 335.076 284.633 320.69 276.059C315.476 272.951 320.255 264.759 325.447 267.919C332.941 272.476 341.081 275.659 349.69 277.336C357.737 278.899 366.738 279.43 374.456 276.19C385.204 271.677 391.591 260.654 395.632 250.276C398.013 244.152 399.797 237.83 401.457 231.482C403.596 223.321 405.59 215.107 407.088 206.801C409.878 191.308 410.782 175.218 407.831 159.682C406.891 154.726 405.56 149.738 403.825 144.944C403.552 144.606 403.293 144.229 403.06 143.816C401.246 140.638 399.994 137.025 398.646 133.587C397.464 131.537 396.173 129.566 394.802 127.639C392.753 126.065 390.801 124.382 389.014 122.546C394.206 119.186 398.788 114.979 402.085 109.621C402.628 108.737 402.283 107.893 401.639 107.416C399.006 110.707 395.599 113.495 392.014 115.964C390.178 117.536 388.201 118.948 386.128 120.223C384.647 120.516 383.15 120.717 381.699 120.882C377.566 121.352 373.41 121.176 369.299 120.628C360.408 119.442 322.808 109.093 306.959 113.116C303.657 113.954 302.101 116.914 300.352 119.693C298.836 122.11 296.907 124.111 294.593 125.758L294.335 125.94C289.81 129.07 280.713 138.972 276.89 147.81C271.952 159.221 267.21 193.415 269.393 193.709C275.104 194.482 278.266 197.485 282.918 200.707C283.226 200.918 283.046 201.489 282.65 201.344C279.58 200.238 276.259 199.583 273.039 199.048C270.127 198.561 267.061 198.473 264.25 199.513C259.936 201.111 257.832 204.724 256.967 208.798C256.628 210.392 256.479 212.056 256.461 213.702L256.459 214.179C256.461 219.37 257.43 225.124 261.201 228.953C262.804 230.582 264.979 231.679 267.254 231.982C269.745 232.316 271.282 231.192 273.571 230.608C276.206 229.936 278.262 231.671 278.016 233.931C278.574 234.419 279.114 234.932 279.65 235.455L279.651 235.457L279.654 235.459C280.006 235.617 280.34 235.828 280.643 236.083C281.139 236.504 281.556 236.965 281.89 237.461C282.633 237.606 283.344 238.019 283.928 238.774C285.132 240.323 286.243 241.891 287.276 243.489C289.125 245.451 290.965 247.418 292.78 249.415C294.963 251.816 297.089 254.272 299.228 256.713L300.3 257.932C301.455 259.245 302.606 260.557 303.757 261.874L304.1 262.261C305.258 263.557 306.145 264.513 306.269 266.379C306.357 267.761 304.868 268.701 303.634 268.385C301.731 267.894 300.847 266.401 299.707 264.92L297.985 262.712L296.364 260.632C295.56 259.596 294.747 258.564 293.939 257.533C293.698 259.433 291.686 260.966 289.85 261.049L289.422 261.066C285.11 261.209 279.87 260.601 276.588 257.563C275.112 259.051 273.276 260.224 271.014 260.926C265.875 262.524 260.621 259.692 258.544 255.386C254.516 257.111 249.965 257.458 245.612 256.189C243.101 255.454 242.233 252.326 243.982 250.412L244.061 250.328L244.081 250.306C243.72 249.836 243.522 249.262 243.49 248.636C243.451 247.877 244.004 247.072 243.89 246.363C243.455 243.659 239.043 245.662 237.64 246.248C237.373 246.359 237.121 246.412 236.887 246.421C234.719 247.052 232.361 244.205 233.497 241.856C236.04 236.605 238.522 231.315 241.096 226.073C240.771 226.183 240.437 226.284 240.108 226.367C235.482 227.553 229.873 225.279 230.94 219.708C231.186 218.399 232.372 217.504 233.55 217.1C235.843 216.31 237.564 216.88 239.33 216.143C241.32 215.317 243.398 213.803 245.146 212.376C247.013 210.857 248.625 209.149 250.053 207.297C250.624 204.606 251.612 202.033 253.193 199.82C253.29 199.689 253.387 199.557 253.488 199.43C243.347 197.013 244.674 187.046 240.201 178.212L239.823 177.48C236.785 171.571 234.135 164.909 235.667 158.18C235.939 156.991 236.335 155.854 236.844 154.791C236.031 154.892 235.214 154.985 234.402 155.077C232.535 155.287 230.637 152.882 231.38 151.112C231.771 150.186 232.201 149.291 232.667 148.421C233.958 146.024 235.544 143.847 237.411 141.88C234.274 141.797 231.134 141.797 228.033 141.437C225.103 141.099 222.023 139.496 222.112 136.12C222.204 132.902 225.03 130.465 227.65 128.895C230.229 125.466 233.5 122.617 237.2 120.5C236.468 120.336 235.727 120.214 234.973 120.139L234.595 120.105C232.482 119.938 230.585 119.359 228.669 118.477C226.956 117.686 226.983 115.289 228.103 114.082C231.724 110.17 237.15 111.444 241.372 113.686C241.078 113.313 240.756 112.954 240.405 112.61L240.191 112.406C238.117 110.476 241.23 107.378 243.297 109.302C243.95 109.91 244.535 110.57 245.057 111.271L245.107 111.167C247.838 105.63 251.832 100.675 256.559 96.7036L257.669 95.7807C266.192 88.6658 268.821 85.2936 280.155 86.3412C279.672 84.2835 279.719 81.9689 279.828 80.0656L279.843 79.8087C280.278 72.6529 282.918 64.0878 289.902 60.8743C291.717 60.0445 293.772 61.4011 293.289 63.4776C292.951 64.9483 292.538 66.3794 292.024 67.7711C293.548 66.1687 295.182 64.6717 296.913 63.2932C303.967 57.6739 313.394 52.8404 322.667 54.4208C327.762 55.2945 331.76 58.4905 336.025 61.1596C340.312 63.8464 345.1 65.44 350.121 66.0151C357.136 66.8228 364.177 66.0107 371.113 64.7288C375.879 62.6523 380.504 60.2201 385.02 57.5993C387.796 55.9881 390.497 54.2277 393.05 52.2829ZM268.502 207.705C269.987 207.323 271.651 207.327 273.14 207.701C276.984 208.666 280.56 211.88 280.784 215.932C280.885 217.763 279.409 219.514 277.696 219.984C275.754 220.52 274.085 219.571 272.952 218.052C271.735 216.428 271.432 214.668 269.943 213.193L269.599 212.858C268.333 211.649 266.419 210.085 264.663 210.365C264.404 210.405 264.21 210.054 264.474 209.913C265.906 209.132 266.846 208.126 268.502 207.705ZM288.466 188.621C289.144 188.068 290.04 188.717 289.721 189.513L289.696 189.57C288.892 191.264 289.837 193.253 290.812 194.671C291.651 195.896 290.065 197.059 288.949 196.532C285.813 195.044 285.975 190.641 288.466 188.621ZM299.931 137.709C299.874 137.297 300.423 137.125 300.563 137.534C302.905 144.325 303.577 150.34 303.194 157.522L303.158 158.159C302.745 165.077 301.533 172.399 297.343 178.081C296.373 179.393 294.387 178.621 294.708 176.97C295.995 170.363 298.468 164.089 299.43 157.403C300.436 150.414 300.888 144.703 299.931 137.709ZM278.064 162.395C278.407 160.582 281.196 158.716 282.606 160.538C283.081 161.157 282.523 161.916 281.952 162.145C281.416 162.355 280.937 162.066 280.41 162.171C279.984 162.257 279.672 162.523 279.465 162.886L279.422 162.966C279.009 163.756 277.919 163.168 278.064 162.395ZM276.922 147.952C277.924 146.099 280.23 144.918 282.202 146.073C282.852 146.454 282.598 147.565 281.807 147.53L281.339 147.511C279.932 147.46 278.526 147.488 277.344 148.377C277.081 148.575 276.791 148.202 276.922 147.952ZM280.444 97.3568C274.826 94.8325 269.239 97.1114 264.652 100.666C264.272 100.96 264.088 101.303 264.048 101.648C267.11 100.456 270.371 99.6747 273.488 99.0298C276.037 98.5021 278.609 98.1461 281.185 98.0056C281.041 97.747 280.804 97.5187 280.444 97.3568Z" fill="#0D0D0D"/>
<path fill-rule="evenodd" clip-rule="evenodd" d="M359.42 249.034C356.468 247.83 353.833 245.821 351.907 243.256C351.237 242.364 351.063 241.422 351.204 240.561C351.362 239.593 351.935 238.715 352.717 238.126C353.501 237.535 354.482 237.244 355.431 237.393C356.255 237.522 357.076 237.973 357.725 238.908L357.861 239.095C359.006 240.643 360.498 241.914 362.198 242.733C363.837 243.522 365.67 243.89 367.567 243.676C371.179 243.268 373.669 241.316 376.315 238.664C376.643 238.329 376.972 237.984 377.301 237.633C377.51 237.315 377.799 237.111 378.12 237.004C378.476 236.885 378.879 236.891 379.248 237.02C379.605 237.144 379.923 237.38 380.136 237.693C380.339 237.991 380.454 238.359 380.417 238.782C380.175 241.529 378.737 243.982 376.695 245.907C374.428 248.046 371.422 249.525 368.592 250.044C365.474 250.616 362.297 250.206 359.42 249.034ZM370.063 206.643C373.38 208.658 378.434 213.357 374.865 218.353C370.665 222.757 364.618 217.707 361.638 215.423C358.874 213.653 355.77 218.205 358.333 220.272C379.868 236.206 388.607 207.17 371.74 204.274C369.883 203.955 369.194 206.02 370.063 206.643ZM331.473 188.108C331.84 183.561 338.768 182.529 339.457 187.028C340.074 191.058 339.348 194.76 337.531 198.389C335.796 201.855 331.434 200.238 331.104 197.081C330.662 192.85 331.245 190.936 331.473 188.108ZM384.212 186.095C385.178 184.831 386.573 183.968 388.244 184.455C393.465 185.98 391.926 193.387 390.092 196.993C389.096 198.951 385.876 199.447 384.421 197.723C382.049 194.912 380.913 189.298 383.928 186.528C384.01 186.385 384.101 186.241 384.212 186.095ZM337.458 168.214L338.283 168.07C340.834 167.629 344.006 167.205 345.81 169.255C346.768 170.342 347.097 172.362 345.81 173.402C343.547 175.233 341.045 174.524 338.333 174.679C336.098 174.807 333.95 175.176 331.798 175.792C327.075 177.141 323.226 179.603 319.193 182.308C318.663 182.662 318.123 181.986 318.376 181.491C320.704 176.933 325.217 173.189 329.737 170.906C332.149 169.688 334.789 168.677 337.458 168.214ZM379.453 166.172L380.085 166.301C386.953 167.736 395.878 170.602 399.13 177.345C399.254 178.299 399.123 178.503 399.017 178.637L398.981 178.681C398.894 178.795 398.824 178.952 398.41 179.082C398.295 179.055 398.179 179.026 398.062 178.995C396.571 178.605 395.392 178.067 394.25 177.508L393.011 176.899C391.575 176.195 390.125 175.516 388.59 175.015C385.312 173.947 381.94 173.194 378.516 172.792C377.774 172.705 377.06 172.455 376.496 172.026C375.961 171.619 375.552 171.055 375.366 170.306C375.124 169.336 375.194 168.602 375.714 167.727C376.106 167.07 376.666 166.614 377.309 166.353C377.965 166.086 378.711 166.023 379.453 166.172Z" fill="#0D0D0D"/>
<g filter="url(#filter0_f_440_750)">
<rect x="60" y="481" width="516" height="152" fill="#1A1A1A"/>
</g>
<defs>
<filter id="filter0_f_440_750" x="0" y="421" width="636" height="272" filterUnits="userSpaceOnUse" color-interpolation-filters="sRGB">
<feFlood flood-opacity="0" result="BackgroundImageFix"/>
<feBlend mode="normal" in="SourceGraphic" in2="BackgroundImageFix" result="shape"/>
<feGaussianBlur stdDeviation="30" result="effect1_foregroundBlur_440_750"/>
</filter>
</defs>
</svg>
