<svg width="25" height="24" viewBox="0 0 25 24" fill="none" xmlns="http://www.w3.org/2000/svg">
<path d="M12.5 0.960057C12.3728 0.958258 12.2465 0.98176 12.1285 1.0292C12.0104 1.07663 11.903 1.14706 11.8124 1.23638C11.7218 1.32571 11.6498 1.43214 11.6007 1.54951C11.5516 1.66688 11.5263 1.79283 11.5263 1.92006C11.5263 2.04728 11.5516 2.17324 11.6007 2.2906C11.6498 2.40797 11.7218 2.51441 11.8124 2.60373C11.903 2.69305 12.0104 2.76348 12.1285 2.81092C12.2465 2.85835 12.3728 2.88186 12.5 2.88006C17.5482 2.88006 21.62 6.95184 21.62 12.0001C21.62 17.0483 17.5482 21.1201 12.5 21.1201C7.4518 21.1201 3.38002 17.0483 3.38002 12.0001C3.38002 9.37167 4.48787 7.01195 6.26002 5.34943V7.20006C6.25822 7.32727 6.28172 7.45357 6.32916 7.57162C6.3766 7.68967 6.44703 7.79711 6.53635 7.88771C6.62567 7.9783 6.73211 8.05024 6.84948 8.09934C6.96684 8.14844 7.0928 8.17373 7.22002 8.17373C7.34725 8.17373 7.4732 8.14844 7.59057 8.09934C7.70794 8.05024 7.81437 7.9783 7.9037 7.88771C7.99302 7.79711 8.06344 7.68967 8.11088 7.57162C8.15832 7.45357 8.18182 7.32727 8.18002 7.20006V1.92006H2.90002C2.77281 1.91826 2.64651 1.94176 2.52846 1.9892C2.41041 2.03663 2.30297 2.10706 2.21237 2.19638C2.12178 2.28571 2.04984 2.39214 2.00074 2.50951C1.95163 2.62688 1.92635 2.75283 1.92635 2.88006C1.92635 3.00728 1.95163 3.13324 2.00074 3.2506C2.04984 3.36797 2.12178 3.47441 2.21237 3.56373C2.30297 3.65305 2.41041 3.72348 2.52846 3.77092C2.64651 3.81835 2.77281 3.84186 2.90002 3.84006H5.07221C2.85524 5.86061 1.46002 8.77077 1.46002 12.0001C1.46002 18.0859 6.41416 23.0401 12.5 23.0401C18.5859 23.0401 23.54 18.0859 23.54 12.0001C23.54 5.9142 18.5859 0.960057 12.5 0.960057Z" fill="#666666"/>
</svg>
