<svg width="38" height="32" viewBox="0 0 38 32" fill="none" xmlns="http://www.w3.org/2000/svg">
<path d="M29 31C29 27.6863 24.5228 25 19 25C13.4772 25 9 27.6863 9 31M37 25.0007C37 22.5404 34.5318 20.4259 31 19.5M1 25.0007C1 22.5404 3.46819 20.4259 7 19.5M31 11.4722C32.2275 10.3736 33 8.777 33 7C33 3.68629 30.3137 1 27 1C25.4633 1 24.0615 1.57771 23 2.52779M7 11.4722C5.7725 10.3736 5 8.777 5 7C5 3.68629 7.68629 1 11 1C12.5367 1 13.9385 1.57771 15 2.52779M19 19C15.6863 19 13 16.3137 13 13C13 9.68629 15.6863 7 19 7C22.3137 7 25 9.68629 25 13C25 16.3137 22.3137 19 19 19Z" stroke="white" stroke-width="2" stroke-linecap="round" strokeLinejoin="round"/>
</svg>
